<?xml version="1.0" encoding="UTF-8" standalone="no"?><svg xmlns="http://www.w3.org/2000/svg" xmlns:xlink="http://www.w3.org/1999/xlink" clip-rule="evenodd" stroke-miterlimit="4.00" viewBox="0 0 678 103"><desc>SVG generated by Keynote</desc><defs></defs><g transform="matrix(1.00, 0.00, -0.00, -1.00, 0.0, 103.0)"><g><clipPath id="clip-1752"><path d="M 86.4 86.9 C 105.9 67.3 105.9 35.7 86.4 16.1 C 66.8 -3.4 35.2 -3.4 15.6 16.1 C -3.9 35.7 -3.9 67.3 15.6 86.9 C 35.2 106.4 66.8 106.4 86.4 86.9 Z M 86.4 86.9 "></path></clipPath><g clip-path="url(#clip-1752)"><g><clipPath id="clip-1753"><path d="M 0.0 0.5 L 102.0 0.5 L 102.0 102.5 L 0.0 102.5 Z M 0.0 0.5 "></path></clipPath><g clip-path="url(#clip-1753)"><image xlink:href="../../26F48F0A-F591-4C46-BED7-ED6C9CCAF82A/assets/01BD9B630741A14858075F16353204BA.jpeg" width="178.00" height="178.00" transform="matrix(0.72, 0.00, -0.00, -0.72, 1.0, 101.5)"></image><path d="M 1.0 101.5 L 101.0 101.5 L 101.0 1.5 L 1.0 1.5 Z M 1.0 101.5 " fill="#860E00" fill-opacity="0.88"></path></g></g></g></g><g><clipPath id="clip-1754"><path d="M 144.0 0.5 L 246.0 0.5 L 246.0 102.5 L 144.0 102.5 Z M 144.0 0.5 "></path></clipPath><g clip-path="url(#clip-1754)"><path d="M 230.4 86.9 C 249.9 67.3 249.9 35.7 230.4 16.1 C 210.8 -3.4 179.2 -3.4 159.6 16.1 C 140.1 35.7 140.1 67.3 159.6 86.9 C 179.2 106.4 210.8 106.4 230.4 86.9 Z M 230.4 86.9 " fill="#1497FC"></path></g></g><g><clipPath id="clip-1755"><path d="M 374.4 86.9 C 393.9 67.3 393.9 35.7 374.4 16.1 C 354.8 -3.4 323.2 -3.4 303.6 16.1 C 284.1 35.7 284.1 67.3 303.6 86.9 C 323.2 106.4 354.8 106.4 374.4 86.9 Z M 374.4 86.9 "></path></clipPath><g clip-path="url(#clip-1755)"><g><clipPath id="clip-1756"><path d="M 288.0 0.5 L 390.0 0.5 L 390.0 102.5 L 288.0 102.5 Z M 288.0 0.5 "></path></clipPath><g clip-path="url(#clip-1756)"><image xlink:href="../../26F48F0A-F591-4C46-BED7-ED6C9CCAF82A/assets/01BD9B630741A14858075F16353204BA.jpeg" width="178.00" height="178.00" transform="matrix(0.72, 0.00, -0.00, -0.72, 289.0, 101.5)"></image><path d="M 289.0 101.5 L 389.0 101.5 L 389.0 1.5 L 289.0 1.5 Z M 289.0 101.5 " fill="#860E00" fill-opacity="0.88"></path></g></g></g></g><g><clipPath id="clip-1757"><path d="M 518.4 86.9 C 537.9 67.3 537.9 35.7 518.4 16.1 C 498.8 -3.4 467.2 -3.4 447.6 16.1 C 428.1 35.7 428.1 67.3 447.6 86.9 C 467.2 106.4 498.8 106.4 518.4 86.9 Z M 518.4 86.9 "></path></clipPath><g clip-path="url(#clip-1757)"><g><clipPath id="clip-1758"><path d="M 432.0 0.5 L 534.0 0.5 L 534.0 102.5 L 432.0 102.5 Z M 432.0 0.5 "></path></clipPath><g clip-path="url(#clip-1758)"><image xlink:href="../../26F48F0A-F591-4C46-BED7-ED6C9CCAF82A/assets/01BD9B630741A14858075F16353204BA.jpeg" width="178.00" height="178.00" transform="matrix(0.72, 0.00, -0.00, -0.72, 433.0, 101.5)"></image><path d="M 433.0 101.5 L 533.0 101.5 L 533.0 1.5 L 433.0 1.5 Z M 433.0 101.5 " fill="#860E00" fill-opacity="0.88"></path></g></g></g></g><g><clipPath id="clip-1759"><path d="M 662.4 86.9 C 681.9 67.3 681.9 35.7 662.4 16.1 C 642.8 -3.4 611.2 -3.4 591.6 16.1 C 572.1 35.7 572.1 67.3 591.6 86.9 C 611.2 106.4 642.8 106.4 662.4 86.9 Z M 662.4 86.9 "></path></clipPath><g clip-path="url(#clip-1759)"><g><clipPath id="clip-1760"><path d="M 576.0 0.5 L 678.0 0.5 L 678.0 102.5 L 576.0 102.5 Z M 576.0 0.5 "></path></clipPath><g clip-path="url(#clip-1760)"><image xlink:href="../../26F48F0A-F591-4C46-BED7-ED6C9CCAF82A/assets/01BD9B630741A14858075F16353204BA.jpeg" width="178.00" height="178.00" transform="matrix(0.72, 0.00, -0.00, -0.72, 577.0, 101.5)"></image><path d="M 577.0 101.5 L 677.0 101.5 L 677.0 1.5 L 577.0 1.5 Z M 577.0 101.5 " fill="#860E00" fill-opacity="0.88"></path></g></g></g></g></g></svg>