<?xml version="1.0" encoding="UTF-8" standalone="no"?><svg xmlns="http://www.w3.org/2000/svg" xmlns:xlink="http://www.w3.org/1999/xlink" clip-rule="evenodd" stroke-miterlimit="4.00" viewBox="0 0 702 75"><desc>SVG generated by Keynote</desc><defs></defs><g transform="matrix(1.00, 0.00, -0.00, -1.00, 0.0, 75.0)"><g><clipPath id="clip-1322"><path d="M -16.2 86.8 L -16.2 14.9 L 128.2 14.9 L 128.2 86.8 Z M -16.2 86.8 "></path></clipPath><g clip-path="url(#clip-1322)"><text xml:space="preserve" font-family="Helvetica-Light" font-size="85.0" fill="#FEF818" transform="matrix(0.00, -1.00, 1.00, -0.00, 87.0, 65.0)">}</text></g></g><g><clipPath id="clip-1323"><path d="M 36.3 -0.5 L 99.7 -0.5 L 99.7 36.5 L 36.3 36.5 Z M 36.3 -0.5 "></path></clipPath><g clip-path="url(#clip-1323)"><text xml:space="preserve" font-family="Helvetica-Light" font-size="22.0" fill="#FEFFFF" transform="matrix(1.00, 0.00, -0.00, -1.00, 42.0, 10.0)">d</text><text xml:space="preserve" font-family="Helvetica-Light" font-size="22.0" fill="#FEFFFF" transform="matrix(1.00, 0.00, -0.00, -1.00, 55.4, 10.0)">o</text><text xml:space="preserve" font-family="Helvetica-Light" font-size="22.0" fill="#FEFFFF" transform="matrix(1.00, 0.00, -0.00, -1.00, 67.7, 10.0)">g</text><text xml:space="preserve" font-family="Helvetica-Light" font-size="22.0" fill="#FEFFFF" transform="matrix(1.00, 0.00, -0.00, -1.00, 81.1, 10.0)">1</text></g></g><g><clipPath id="clip-1324"><path d="M 124.8 86.8 L 124.8 14.9 L 269.2 14.9 L 269.2 86.8 Z M 124.8 86.8 "></path></clipPath><g clip-path="url(#clip-1324)"><text xml:space="preserve" font-family="Helvetica-Light" font-size="85.0" fill="#FEF818" transform="matrix(0.00, -1.00, 1.00, -0.00, 228.0, 65.0)">}</text></g></g><g><clipPath id="clip-1325"><path d="M 177.3 -0.5 L 240.7 -0.5 L 240.7 36.5 L 177.3 36.5 Z M 177.3 -0.5 "></path></clipPath><g clip-path="url(#clip-1325)"><text xml:space="preserve" font-family="Helvetica-Light" font-size="22.0" fill="#FEFFFF" transform="matrix(1.00, 0.00, -0.00, -1.00, 183.0, 10.0)">d</text><text xml:space="preserve" font-family="Helvetica-Light" font-size="22.0" fill="#FEFFFF" transform="matrix(1.00, 0.00, -0.00, -1.00, 196.4, 10.0)">o</text><text xml:space="preserve" font-family="Helvetica-Light" font-size="22.0" fill="#FEFFFF" transform="matrix(1.00, 0.00, -0.00, -1.00, 208.7, 10.0)">g</text><text xml:space="preserve" font-family="Helvetica-Light" font-size="22.0" fill="#FEFFFF" transform="matrix(1.00, 0.00, -0.00, -1.00, 222.1, 10.0)">2</text></g></g><g><clipPath id="clip-1326"><path d="M 278.6 90.6 L 278.6 18.8 L 423.1 18.8 L 423.1 90.6 Z M 278.6 90.6 "></path></clipPath><g clip-path="url(#clip-1326)"><text xml:space="preserve" font-family="Helvetica-Light" font-size="85.0" fill="#FEF818" transform="matrix(0.00, -1.00, 1.00, -0.00, 382.0, 69.0)">}</text></g></g><g><clipPath id="clip-1327"><path d="M 331.2 3.3 L 394.5 3.3 L 394.5 40.3 L 331.2 40.3 Z M 331.2 3.3 "></path></clipPath><g clip-path="url(#clip-1327)"><text xml:space="preserve" font-family="Helvetica-Light" font-size="22.0" fill="#FEFFFF" transform="matrix(1.00, 0.00, -0.00, -1.00, 337.0, 14.0)">d</text><text xml:space="preserve" font-family="Helvetica-Light" font-size="22.0" fill="#FEFFFF" transform="matrix(1.00, 0.00, -0.00, -1.00, 350.4, 14.0)">o</text><text xml:space="preserve" font-family="Helvetica-Light" font-size="22.0" fill="#FEFFFF" transform="matrix(1.00, 0.00, -0.00, -1.00, 362.7, 14.0)">g</text><text xml:space="preserve" font-family="Helvetica-Light" font-size="22.0" fill="#FEFFFF" transform="matrix(1.00, 0.00, -0.00, -1.00, 376.1, 14.0)">3</text></g></g><g><clipPath id="clip-1328"><path d="M 426.0 90.6 L 426.0 18.8 L 570.5 18.8 L 570.5 90.6 Z M 426.0 90.6 "></path></clipPath><g clip-path="url(#clip-1328)"><text xml:space="preserve" font-family="Helvetica-Light" font-size="85.0" fill="#FEF818" transform="matrix(0.00, -1.00, 1.00, -0.00, 530.0, 69.0)">}</text></g></g><g><clipPath id="clip-1329"><path d="M 478.6 3.3 L 541.9 3.3 L 541.9 40.3 L 478.6 40.3 Z M 478.6 3.3 "></path></clipPath><g clip-path="url(#clip-1329)"><text xml:space="preserve" font-family="Helvetica-Light" font-size="22.0" fill="#FEFFFF" transform="matrix(1.00, 0.00, -0.00, -1.00, 485.0, 14.0)">d</text><text xml:space="preserve" font-family="Helvetica-Light" font-size="22.0" fill="#FEFFFF" transform="matrix(1.00, 0.00, -0.00, -1.00, 498.4, 14.0)">o</text><text xml:space="preserve" font-family="Helvetica-Light" font-size="22.0" fill="#FEFFFF" transform="matrix(1.00, 0.00, -0.00, -1.00, 510.7, 14.0)">g</text><text xml:space="preserve" font-family="Helvetica-Light" font-size="22.0" fill="#FEFFFF" transform="matrix(1.00, 0.00, -0.00, -1.00, 524.1, 14.0)">4</text></g></g><g><clipPath id="clip-1330"><path d="M 573.4 90.6 L 573.4 18.8 L 717.9 18.8 L 717.9 90.6 Z M 573.4 90.6 "></path></clipPath><g clip-path="url(#clip-1330)"><text xml:space="preserve" font-family="Helvetica-Light" font-size="85.0" fill="#FEF818" transform="matrix(0.00, -1.00, 1.00, -0.00, 677.0, 69.0)">}</text></g></g><g><clipPath id="clip-1331"><path d="M 626.0 3.3 L 689.3 3.3 L 689.3 40.3 L 626.0 40.3 Z M 626.0 3.3 "></path></clipPath><g clip-path="url(#clip-1331)"><text xml:space="preserve" font-family="Helvetica-Light" font-size="22.0" fill="#FEFFFF" transform="matrix(1.00, 0.00, -0.00, -1.00, 632.0, 14.0)">d</text><text xml:space="preserve" font-family="Helvetica-Light" font-size="22.0" fill="#FEFFFF" transform="matrix(1.00, 0.00, -0.00, -1.00, 645.4, 14.0)">o</text><text xml:space="preserve" font-family="Helvetica-Light" font-size="22.0" fill="#FEFFFF" transform="matrix(1.00, 0.00, -0.00, -1.00, 657.7, 14.0)">g</text><text xml:space="preserve" font-family="Helvetica-Light" font-size="22.0" fill="#FEFFFF" transform="matrix(1.00, 0.00, -0.00, -1.00, 671.1, 14.0)">5</text></g></g></g></svg>