<?xml version="1.0" encoding="UTF-8" standalone="no"?><svg xmlns="http://www.w3.org/2000/svg" xmlns:xlink="http://www.w3.org/1999/xlink" clip-rule="evenodd" stroke-miterlimit="4.00" viewBox="0 0 160 105"><desc>SVG generated by Keynote</desc><defs></defs><g transform="matrix(1.00, 0.00, -0.00, -1.00, 0.0, 105.0)"><g><clipPath id="clip-1459"><path d="M 80.3 41.4 L 92.8 1.9 L 67.8 1.9 Z M 80.3 41.4 "></path></clipPath><g clip-path="url(#clip-1459)"><g><clipPath id="clip-1460"><path d="M 66.8 0.9 L 93.8 0.9 L 93.8 42.4 L 66.8 42.4 Z M 66.8 0.9 "></path></clipPath><g clip-path="url(#clip-1460)"><image xlink:href="../../31EFB80E-0C93-4DB1-AC36-88546DA9A315/assets/161283A943846B493D1C05430B672F4B.jpeg" width="128.00" height="128.00" transform="matrix(1.00, 0.00, -0.00, -1.00, 67.8, 41.4)"></image><path d="M 67.8 41.4 L 92.8 41.4 L 92.8 1.9 L 67.8 1.9 Z M 67.8 41.4 " fill="#860E00" fill-opacity="0.88"></path></g></g></g></g><g><clipPath id="clip-1461"><path d="M -1.6 57.4 L 162.2 57.4 L 162.2 106.9 L -1.6 106.9 Z M -1.6 57.4 "></path></clipPath><g clip-path="url(#clip-1461)"><text xml:space="preserve" font-family="Helvetica-Light" font-size="29.0" fill="#FEFFFF" transform="matrix(1.00, 0.00, -0.00, -1.00, 6.0, 71.0)">D</text><text xml:space="preserve" font-family="Helvetica-Light" font-size="29.0" fill="#FEFFFF" transform="matrix(1.00, 0.00, -0.00, -1.00, 26.9, 71.0)">e</text><text xml:space="preserve" font-family="Helvetica-Light" font-size="29.0" fill="#FEFFFF" transform="matrix(1.00, 0.00, -0.00, -1.00, 43.1, 71.0)">c</text><text xml:space="preserve" font-family="Helvetica-Light" font-size="29.0" fill="#FEFFFF" transform="matrix(1.00, 0.00, -0.00, -1.00, 59.2, 71.0)">l</text><text xml:space="preserve" font-family="Helvetica-Light" font-size="29.0" fill="#FEFFFF" transform="matrix(1.00, 0.00, -0.00, -1.00, 65.6, 71.0)">a</text><text xml:space="preserve" font-family="Helvetica-Light" font-size="29.0" fill="#FEFFFF" transform="matrix(1.00, 0.00, -0.00, -1.00, 81.7, 71.0)">r</text><text xml:space="preserve" font-family="Helvetica-Light" font-size="29.0" fill="#FEFFFF" transform="matrix(1.00, 0.00, -0.00, -1.00, 91.4, 71.0)">a</text><text xml:space="preserve" font-family="Helvetica-Light" font-size="29.0" fill="#FEFFFF" transform="matrix(1.00, 0.00, -0.00, -1.00, 107.5, 71.0)">t</text><text xml:space="preserve" font-family="Helvetica-Light" font-size="29.0" fill="#FEFFFF" transform="matrix(1.00, 0.00, -0.00, -1.00, 115.6, 71.0)">i</text><text xml:space="preserve" font-family="Helvetica-Light" font-size="29.0" fill="#FEFFFF" transform="matrix(1.00, 0.00, -0.00, -1.00, 122.0, 71.0)">o</text><text xml:space="preserve" font-family="Helvetica-Light" font-size="29.0" fill="#FEFFFF" transform="matrix(1.00, 0.00, -0.00, -1.00, 138.2, 71.0)">n</text></g></g></g></svg>