<?xml version="1.0" encoding="UTF-8" standalone="no"?><svg xmlns="http://www.w3.org/2000/svg" xmlns:xlink="http://www.w3.org/1999/xlink" clip-rule="evenodd" stroke-miterlimit="4.00" viewBox="0 0 83 93"><desc>SVG generated by Keynote</desc><defs></defs><g transform="matrix(1.00, 0.00, -0.00, -1.00, 0.0, 93.0)"><g><clipPath id="clip-14"><path d="M 55.4 51.0 L 28.4 51.0 L 28.4 92.6 L 55.4 92.6 Z M 55.4 51.0 "></path></clipPath><g clip-path="url(#clip-14)"><path d="M 41.9 52.0 L 29.4 91.6 L 54.4 91.6 Z M 41.9 52.0 " fill="#42E11D"></path></g></g><g><clipPath id="clip-15"><path d="M -1.3 -1.8 L 85.1 -1.8 L 85.1 47.7 L -1.3 47.7 Z M -1.3 -1.8 "></path></clipPath><g clip-path="url(#clip-15)"><text xml:space="preserve" font-family="Helvetica-Light" font-size="29.0" fill="#FEFFFF" transform="matrix(1.00, 0.00, -0.00, -1.00, 6.0, 12.0)">V</text><text xml:space="preserve" font-family="Helvetica-Light" font-size="29.0" fill="#FEFFFF" transform="matrix(1.00, 0.00, -0.00, -1.00, 22.1, 12.0)">a</text><text xml:space="preserve" font-family="Helvetica-Light" font-size="29.0" fill="#FEFFFF" transform="matrix(1.00, 0.00, -0.00, -1.00, 38.2, 12.0)">l</text><text xml:space="preserve" font-family="Helvetica-Light" font-size="29.0" fill="#FEFFFF" transform="matrix(1.00, 0.00, -0.00, -1.00, 44.7, 12.0)">u</text><text xml:space="preserve" font-family="Helvetica-Light" font-size="29.0" fill="#FEFFFF" transform="matrix(1.00, 0.00, -0.00, -1.00, 60.8, 12.0)">e</text></g></g></g></svg>