<?xml version="1.0" encoding="UTF-8" standalone="no"?><svg xmlns="http://www.w3.org/2000/svg" xmlns:xlink="http://www.w3.org/1999/xlink" clip-rule="evenodd" stroke-miterlimit="4.00" viewBox="0 0 121 93"><desc>SVG generated by Keynote</desc><defs></defs><g transform="matrix(1.00, 0.00, -0.00, -1.00, 0.0, 93.0)"><g><clipPath id="clip-12"><path d="M 73.8 50.6 L 46.8 50.6 L 46.8 92.2 L 73.8 92.2 Z M 73.8 50.6 "></path></clipPath><g clip-path="url(#clip-12)"><path d="M 60.3 51.6 L 47.8 91.2 L 72.8 91.2 Z M 60.3 51.6 " fill="#E7A432"></path></g></g><g><clipPath id="clip-13"><path d="M -2.2 -2.2 L 122.8 -2.2 L 122.8 47.3 L -2.2 47.3 Z M -2.2 -2.2 "></path></clipPath><g clip-path="url(#clip-13)"><text xml:space="preserve" font-family="Helvetica-Light" font-size="29.0" fill="#FEFFFF" transform="matrix(1.00, 0.00, -0.00, -1.00, 6.0, 12.0)">P</text><text xml:space="preserve" font-family="Helvetica-Light" font-size="29.0" fill="#FEFFFF" transform="matrix(1.00, 0.00, -0.00, -1.00, 23.7, 12.0)">r</text><text xml:space="preserve" font-family="Helvetica-Light" font-size="29.0" fill="#FEFFFF" transform="matrix(1.00, 0.00, -0.00, -1.00, 32.9, 12.0)">o</text><text xml:space="preserve" font-family="Helvetica-Light" font-size="29.0" fill="#FEFFFF" transform="matrix(1.00, 0.00, -0.00, -1.00, 49.0, 12.0)">p</text><text xml:space="preserve" font-family="Helvetica-Light" font-size="29.0" fill="#FEFFFF" transform="matrix(1.00, 0.00, -0.00, -1.00, 66.7, 12.0)">e</text><text xml:space="preserve" font-family="Helvetica-Light" font-size="29.0" fill="#FEFFFF" transform="matrix(1.00, 0.00, -0.00, -1.00, 82.8, 12.0)">r</text><text xml:space="preserve" font-family="Helvetica-Light" font-size="29.0" fill="#FEFFFF" transform="matrix(1.00, 0.00, -0.00, -1.00, 93.0, 12.0)">t</text><text xml:space="preserve" font-family="Helvetica-Light" font-size="29.0" fill="#FEFFFF" transform="matrix(1.00, 0.00, -0.00, -1.00, 101.1, 12.0)">y</text></g></g></g></svg>