<?xml version="1.0" encoding="UTF-8" standalone="no"?><svg xmlns="http://www.w3.org/2000/svg" xmlns:xlink="http://www.w3.org/1999/xlink" clip-rule="evenodd" stroke-miterlimit="4.00" viewBox="0 0 1024 768"><desc>SVG generated by Keynote</desc><defs><pattern id="6719C4B3-8EF6-48FF-AF1E-71D21CC42471" patternUnits="userSpaceOnUse" width="128" height="128" viewBox="0 0 128 128" patternTransform="matrix(1.000000, 0.000000, 0.000000, -1.000000, 136.481000, 288.519000)"><image xlink:href="../../31EFB80E-0C93-4DB1-AC36-88546DA9A315/assets/161283A943846B493D1C05430B672F4B.jpeg" width="128.00" height="128.00"></image></pattern></defs><g transform="matrix(1.00, 0.00, -0.00, -1.00, 0.0, 768.0)"><path d="M 0.0 768.0 L 1024.0 768.0 L 1024.0 0.0 L 0.0 0.0 Z M 0.0 768.0 " fill="#000000"></path><text xml:space="preserve" font-family="Helvetica-Light" font-size="80.0" fill="#FEFFFF" transform="matrix(1.00, 0.00, -0.00, -1.00, 434.0, 633.0)">C</text><text xml:space="preserve" font-family="Helvetica-Light" font-size="80.0" fill="#FEFFFF" transform="matrix(1.00, 0.00, -0.00, -1.00, 491.8, 633.0)">S</text><text xml:space="preserve" font-family="Helvetica-Light" font-size="80.0" fill="#FEFFFF" transform="matrix(1.00, 0.00, -0.00, -1.00, 540.6, 633.0)">S</text><g><clipPath id="clip-1104"><path d="M 136.5 233.3 L 136.5 277.2 C 136.5 283.5 141.5 288.5 147.8 288.5 L 974.4 288.5 C 980.6 288.5 985.7 283.5 985.7 277.2 L 985.7 233.3 C 985.7 227.0 980.6 221.9 974.4 221.9 L 147.8 221.9 C 141.5 221.9 136.5 227.0 136.5 233.3 Z M 136.5 233.3 "></path></clipPath><g clip-path="url(#clip-1104)"><g><clipPath id="clip-1105"><path d="M 135.5 220.9 L 986.7 220.9 L 986.7 289.5 L 135.5 289.5 Z M 135.5 220.9 "></path></clipPath><g clip-path="url(#clip-1105)"><path d="M 136.5 221.9 L 985.7 221.9 L 985.7 288.5 L 136.5 288.5 Z M 136.5 221.9 " fill="url(#6719C4B3-8EF6-48FF-AF1E-71D21CC42471)"></path><path d="M 136.5 288.5 L 985.7 288.5 L 985.7 221.9 L 136.5 221.9 Z M 136.5 288.5 " fill="#9F4B3A" fill-opacity="0.85"></path></g></g></g></g><g><clipPath id="clip-1106"><path d="M 48.0 233.3 L 48.0 277.2 C 48.0 283.5 53.1 288.5 59.3 288.5 L 112.1 288.5 C 118.4 288.5 123.5 283.5 123.5 277.2 L 123.5 233.3 C 123.5 227.0 118.4 221.9 112.1 221.9 L 59.3 221.9 C 53.1 221.9 48.0 227.0 48.0 233.3 Z M 48.0 233.3 "></path></clipPath><g clip-path="url(#clip-1106)"><g><clipPath id="clip-1107"><path d="M 47.0 220.9 L 124.5 220.9 L 124.5 289.5 L 47.0 289.5 Z M 47.0 220.9 "></path></clipPath><g clip-path="url(#clip-1107)"><image xlink:href="../../31EFB80E-0C93-4DB1-AC36-88546DA9A315/assets/161283A943846B493D1C05430B672F4B.jpeg" width="128.00" height="128.00" transform="matrix(1.00, 0.00, -0.00, -1.00, 48.0, 288.5)"></image><path d="M 48.0 288.5 L 123.5 288.5 L 123.5 221.9 L 48.0 221.9 Z M 48.0 288.5 " fill="#9F4B3A" fill-opacity="0.85"></path></g></g></g></g><g><clipPath id="clip-1108"><path d="M 51.9 222.0 L 972.1 222.0 L 972.1 288.5 L 51.9 288.5 Z M 51.9 222.0 "></path></clipPath><g clip-path="url(#clip-1108)"><text xml:space="preserve" font-family="Helvetica-Light" font-size="39.0" fill="#FEFFFF" transform="matrix(1.00, 0.00, -0.00, -1.00, 62.0, 241.0)">h</text><text xml:space="preserve" font-family="Helvetica-Light" font-size="39.0" fill="#FEFFFF" transform="matrix(1.00, 0.00, -0.00, -1.00, 83.7, 241.0)">1</text><text xml:space="preserve" font-family="Helvetica-Light" font-size="39.0" fill="#FEFFFF" transform="matrix(1.00, 0.00, -0.00, -1.00, 105.4, 241.0)"> </text><text xml:space="preserve" font-family="Helvetica-Light" font-size="39.0" fill="#FEFFFF" transform="matrix(1.00, 0.00, -0.00, -1.00, 116.2, 241.0)"> </text><text xml:space="preserve" font-family="Helvetica-Light" font-size="39.0" fill="#FEFFFF" transform="matrix(1.00, 0.00, -0.00, -1.00, 127.1, 241.0)"> </text><text xml:space="preserve" font-family="Helvetica-Light" font-size="39.0" fill="#FEFFFF" transform="matrix(1.00, 0.00, -0.00, -1.00, 137.9, 241.0)"> </text><text xml:space="preserve" font-family="Helvetica-Light" font-size="39.0" fill="#FEFFFF" transform="matrix(1.00, 0.00, -0.00, -1.00, 148.7, 241.0)">{</text><text xml:space="preserve" font-family="Helvetica-Light" font-size="39.0" fill="#FEFFFF" transform="matrix(1.00, 0.00, -0.00, -1.00, 161.7, 241.0)">c</text><text xml:space="preserve" font-family="Helvetica-Light" font-size="39.0" fill="#FEFFFF" transform="matrix(1.00, 0.00, -0.00, -1.00, 183.4, 241.0)">o</text><text xml:space="preserve" font-family="Helvetica-Light" font-size="39.0" fill="#FEFFFF" transform="matrix(1.00, 0.00, -0.00, -1.00, 205.1, 241.0)">l</text><text xml:space="preserve" font-family="Helvetica-Light" font-size="39.0" fill="#FEFFFF" transform="matrix(1.00, 0.00, -0.00, -1.00, 213.7, 241.0)">o</text><text xml:space="preserve" font-family="Helvetica-Light" font-size="39.0" fill="#FEFFFF" transform="matrix(1.00, 0.00, -0.00, -1.00, 235.4, 241.0)">r</text><text xml:space="preserve" font-family="Helvetica-Light" font-size="39.0" fill="#FEFFFF" transform="matrix(1.00, 0.00, -0.00, -1.00, 248.4, 241.0)">:</text><text xml:space="preserve" font-family="Helvetica-Light" font-size="39.0" fill="#FEFFFF" transform="matrix(1.00, 0.00, -0.00, -1.00, 259.3, 241.0)"> </text><text xml:space="preserve" font-family="Helvetica-Light" font-size="39.0" fill="#FEFFFF" transform="matrix(1.00, 0.00, -0.00, -1.00, 270.1, 241.0)">r</text><text xml:space="preserve" font-family="Helvetica-Light" font-size="39.0" fill="#FEFFFF" transform="matrix(1.00, 0.00, -0.00, -1.00, 282.4, 241.0)">e</text><text xml:space="preserve" font-family="Helvetica-Light" font-size="39.0" fill="#FEFFFF" transform="matrix(1.00, 0.00, -0.00, -1.00, 304.1, 241.0)">d</text><text xml:space="preserve" font-family="Helvetica-Light" font-size="39.0" fill="#FEFFFF" transform="matrix(1.00, 0.00, -0.00, -1.00, 327.9, 241.0)">;</text><text xml:space="preserve" font-family="Helvetica-Light" font-size="39.0" fill="#FEFFFF" transform="matrix(1.00, 0.00, -0.00, -1.00, 338.7, 241.0)"> </text><text xml:space="preserve" font-family="Helvetica-Light" font-size="39.0" fill="#FEFFFF" transform="matrix(1.00, 0.00, -0.00, -1.00, 349.6, 241.0)">f</text><text xml:space="preserve" font-family="Helvetica-Light" font-size="39.0" fill="#FEFFFF" transform="matrix(1.00, 0.00, -0.00, -1.00, 360.4, 241.0)">o</text><text xml:space="preserve" font-family="Helvetica-Light" font-size="39.0" fill="#FEFFFF" transform="matrix(1.00, 0.00, -0.00, -1.00, 382.1, 241.0)">n</text><text xml:space="preserve" font-family="Helvetica-Light" font-size="39.0" fill="#FEFFFF" transform="matrix(1.00, 0.00, -0.00, -1.00, 403.8, 241.0)">t</text><text xml:space="preserve" font-family="Helvetica-Light" font-size="39.0" fill="#FEFFFF" transform="matrix(1.00, 0.00, -0.00, -1.00, 414.6, 241.0)">-</text><text xml:space="preserve" font-family="Helvetica-Light" font-size="39.0" fill="#FEFFFF" transform="matrix(1.00, 0.00, -0.00, -1.00, 427.6, 241.0)">s</text><text xml:space="preserve" font-family="Helvetica-Light" font-size="39.0" fill="#FEFFFF" transform="matrix(1.00, 0.00, -0.00, -1.00, 447.1, 241.0)">i</text><text xml:space="preserve" font-family="Helvetica-Light" font-size="39.0" fill="#FEFFFF" transform="matrix(1.00, 0.00, -0.00, -1.00, 455.8, 241.0)">z</text><text xml:space="preserve" font-family="Helvetica-Light" font-size="39.0" fill="#FEFFFF" transform="matrix(1.00, 0.00, -0.00, -1.00, 475.3, 241.0)">e</text><text xml:space="preserve" font-family="Helvetica-Light" font-size="39.0" fill="#FEFFFF" transform="matrix(1.00, 0.00, -0.00, -1.00, 497.0, 241.0)">:</text><text xml:space="preserve" font-family="Helvetica-Light" font-size="39.0" fill="#FEFFFF" transform="matrix(1.00, 0.00, -0.00, -1.00, 507.8, 241.0)"> </text><text xml:space="preserve" font-family="Helvetica-Light" font-size="39.0" fill="#FEFFFF" transform="matrix(1.00, 0.00, -0.00, -1.00, 518.7, 241.0)">2</text><text xml:space="preserve" font-family="Helvetica-Light" font-size="39.0" fill="#FEFFFF" transform="matrix(1.00, 0.00, -0.00, -1.00, 540.3, 241.0)">4</text><text xml:space="preserve" font-family="Helvetica-Light" font-size="39.0" fill="#FEFFFF" transform="matrix(1.00, 0.00, -0.00, -1.00, 562.0, 241.0)">p</text><text xml:space="preserve" font-family="Helvetica-Light" font-size="39.0" fill="#FEFFFF" transform="matrix(1.00, 0.00, -0.00, -1.00, 585.8, 241.0)">x</text><text xml:space="preserve" font-family="Helvetica-Light" font-size="39.0" fill="#FEFFFF" transform="matrix(1.00, 0.00, -0.00, -1.00, 605.3, 241.0)">;</text><text xml:space="preserve" font-family="Helvetica-Light" font-size="39.0" fill="#FEFFFF" transform="matrix(1.00, 0.00, -0.00, -1.00, 616.2, 241.0)"> </text><text xml:space="preserve" font-family="Helvetica-Light" font-size="39.0" fill="#FEFFFF" transform="matrix(1.00, 0.00, -0.00, -1.00, 627.0, 241.0)">t</text><text xml:space="preserve" font-family="Helvetica-Light" font-size="39.0" fill="#FEFFFF" transform="matrix(1.00, 0.00, -0.00, -1.00, 637.9, 241.0)">e</text><text xml:space="preserve" font-family="Helvetica-Light" font-size="39.0" fill="#FEFFFF" transform="matrix(1.00, 0.00, -0.00, -1.00, 659.6, 241.0)">x</text><text xml:space="preserve" font-family="Helvetica-Light" font-size="39.0" fill="#FEFFFF" transform="matrix(1.00, 0.00, -0.00, -1.00, 679.1, 241.0)">t</text><text xml:space="preserve" font-family="Helvetica-Light" font-size="39.0" fill="#FEFFFF" transform="matrix(1.00, 0.00, -0.00, -1.00, 689.9, 241.0)">-</text><text xml:space="preserve" font-family="Helvetica-Light" font-size="39.0" fill="#FEFFFF" transform="matrix(1.00, 0.00, -0.00, -1.00, 702.9, 241.0)">a</text><text xml:space="preserve" font-family="Helvetica-Light" font-size="39.0" fill="#FEFFFF" transform="matrix(1.00, 0.00, -0.00, -1.00, 724.6, 241.0)">l</text><text xml:space="preserve" font-family="Helvetica-Light" font-size="39.0" fill="#FEFFFF" transform="matrix(1.00, 0.00, -0.00, -1.00, 733.2, 241.0)">i</text><text xml:space="preserve" font-family="Helvetica-Light" font-size="39.0" fill="#FEFFFF" transform="matrix(1.00, 0.00, -0.00, -1.00, 741.9, 241.0)">g</text><text xml:space="preserve" font-family="Helvetica-Light" font-size="39.0" fill="#FEFFFF" transform="matrix(1.00, 0.00, -0.00, -1.00, 765.7, 241.0)">n</text><text xml:space="preserve" font-family="Helvetica-Light" font-size="39.0" fill="#FEFFFF" transform="matrix(1.00, 0.00, -0.00, -1.00, 787.4, 241.0)">:</text><text xml:space="preserve" font-family="Helvetica-Light" font-size="39.0" fill="#FEFFFF" transform="matrix(1.00, 0.00, -0.00, -1.00, 798.2, 241.0)"> </text><text xml:space="preserve" font-family="Helvetica-Light" font-size="39.0" fill="#FEFFFF" transform="matrix(1.00, 0.00, -0.00, -1.00, 809.1, 241.0)">c</text><text xml:space="preserve" font-family="Helvetica-Light" font-size="39.0" fill="#FEFFFF" transform="matrix(1.00, 0.00, -0.00, -1.00, 830.8, 241.0)">e</text><text xml:space="preserve" font-family="Helvetica-Light" font-size="39.0" fill="#FEFFFF" transform="matrix(1.00, 0.00, -0.00, -1.00, 852.5, 241.0)">n</text><text xml:space="preserve" font-family="Helvetica-Light" font-size="39.0" fill="#FEFFFF" transform="matrix(1.00, 0.00, -0.00, -1.00, 874.1, 241.0)">t</text><text xml:space="preserve" font-family="Helvetica-Light" font-size="39.0" fill="#FEFFFF" transform="matrix(1.00, 0.00, -0.00, -1.00, 885.0, 241.0)">e</text><text xml:space="preserve" font-family="Helvetica-Light" font-size="39.0" fill="#FEFFFF" transform="matrix(1.00, 0.00, -0.00, -1.00, 906.7, 241.0)">r</text><text xml:space="preserve" font-family="Helvetica-Light" font-size="39.0" fill="#FEFFFF" transform="matrix(1.00, 0.00, -0.00, -1.00, 919.6, 241.0)">;</text><text xml:space="preserve" font-family="Helvetica-Light" font-size="39.0" fill="#FEFFFF" transform="matrix(1.00, 0.00, -0.00, -1.00, 930.5, 241.0)">}</text></g></g><text xml:space="preserve" font-family="Helvetica-Light" font-size="24.8" fill="#FEFFFF" transform="matrix(1.00, 0.00, -0.00, -1.00, 79.0, 564.4)">•</text><text xml:space="preserve" font-family="Helvetica-Light" font-size="33.0" fill="#FEFFFF" transform="matrix(1.00, 0.00, -0.00, -1.00, 114.0, 561.0)">A</text><text xml:space="preserve" font-family="Helvetica-Light" font-size="33.0" fill="#FEFFFF" transform="matrix(1.00, 0.00, -0.00, -1.00, 136.0, 561.0)">s</text><text xml:space="preserve" font-family="Helvetica-Light" font-size="33.0" fill="#FEFFFF" transform="matrix(1.00, 0.00, -0.00, -1.00, 152.5, 561.0)">s</text><text xml:space="preserve" font-family="Helvetica-Light" font-size="33.0" fill="#FEFFFF" transform="matrix(1.00, 0.00, -0.00, -1.00, 169.0, 561.0)">i</text><text xml:space="preserve" font-family="Helvetica-Light" font-size="33.0" fill="#FEFFFF" transform="matrix(1.00, 0.00, -0.00, -1.00, 176.3, 561.0)">g</text><text xml:space="preserve" font-family="Helvetica-Light" font-size="33.0" fill="#FEFFFF" transform="matrix(1.00, 0.00, -0.00, -1.00, 196.5, 561.0)">n</text><text xml:space="preserve" font-family="Helvetica-Light" font-size="33.0" fill="#FEFFFF" transform="matrix(1.00, 0.00, -0.00, -1.00, 214.8, 561.0)">s</text><text xml:space="preserve" font-family="Helvetica-Light" font-size="33.0" fill="#FEFFFF" transform="matrix(1.00, 0.00, -0.00, -1.00, 231.3, 561.0)"> </text><text xml:space="preserve" font-family="Helvetica-Light" font-size="33.0" fill="#FEFFFF" transform="matrix(1.00, 0.00, -0.00, -1.00, 240.5, 561.0)">h</text><text xml:space="preserve" font-family="Helvetica-Light" font-size="33.0" fill="#FEFFFF" transform="matrix(1.00, 0.00, -0.00, -1.00, 258.9, 561.0)">o</text><text xml:space="preserve" font-family="Helvetica-Light" font-size="33.0" fill="#FEFFFF" transform="matrix(1.00, 0.00, -0.00, -1.00, 277.2, 561.0)">w</text><text xml:space="preserve" font-family="Helvetica-Light" font-size="33.0" fill="#FEFFFF" transform="matrix(1.00, 0.00, -0.00, -1.00, 301.0, 561.0)"> </text><text xml:space="preserve" font-family="Helvetica-Light" font-size="33.0" fill="#FEFFFF" transform="matrix(1.00, 0.00, -0.00, -1.00, 310.2, 561.0)">a</text><text xml:space="preserve" font-family="Helvetica-Light" font-size="33.0" fill="#FEFFFF" transform="matrix(1.00, 0.00, -0.00, -1.00, 328.6, 561.0)">n</text><text xml:space="preserve" font-family="Helvetica-Light" font-size="33.0" fill="#FEFFFF" transform="matrix(1.00, 0.00, -0.00, -1.00, 346.9, 561.0)"> </text><text xml:space="preserve" font-family="Helvetica-Light" font-size="33.0" fill="#FEFFFF" transform="matrix(1.00, 0.00, -0.00, -1.00, 356.1, 561.0)">e</text><text xml:space="preserve" font-family="Helvetica-Light" font-size="33.0" fill="#FEFFFF" transform="matrix(1.00, 0.00, -0.00, -1.00, 374.4, 561.0)">l</text><text xml:space="preserve" font-family="Helvetica-Light" font-size="33.0" fill="#FEFFFF" transform="matrix(1.00, 0.00, -0.00, -1.00, 381.8, 561.0)">e</text><text xml:space="preserve" font-family="Helvetica-Light" font-size="33.0" fill="#FEFFFF" transform="matrix(1.00, 0.00, -0.00, -1.00, 400.1, 561.0)">m</text><text xml:space="preserve" font-family="Helvetica-Light" font-size="33.0" fill="#FEFFFF" transform="matrix(1.00, 0.00, -0.00, -1.00, 427.6, 561.0)">e</text><text xml:space="preserve" font-family="Helvetica-Light" font-size="33.0" fill="#FEFFFF" transform="matrix(1.00, 0.00, -0.00, -1.00, 445.9, 561.0)">n</text><text xml:space="preserve" font-family="Helvetica-Light" font-size="33.0" fill="#FEFFFF" transform="matrix(1.00, 0.00, -0.00, -1.00, 464.3, 561.0)">t</text><text xml:space="preserve" font-family="Helvetica-Light" font-size="33.0" fill="#FEFFFF" transform="matrix(1.00, 0.00, -0.00, -1.00, 473.5, 561.0)"> </text><text xml:space="preserve" font-family="Helvetica-Light" font-size="33.0" fill="#FEFFFF" transform="matrix(1.00, 0.00, -0.00, -1.00, 482.6, 561.0)">w</text><text xml:space="preserve" font-family="Helvetica-Light" font-size="33.0" fill="#FEFFFF" transform="matrix(1.00, 0.00, -0.00, -1.00, 506.5, 561.0)">i</text><text xml:space="preserve" font-family="Helvetica-Light" font-size="33.0" fill="#FEFFFF" transform="matrix(1.00, 0.00, -0.00, -1.00, 513.8, 561.0)">l</text><text xml:space="preserve" font-family="Helvetica-Light" font-size="33.0" fill="#FEFFFF" transform="matrix(1.00, 0.00, -0.00, -1.00, 521.1, 561.0)">l</text><text xml:space="preserve" font-family="Helvetica-Light" font-size="33.0" fill="#FEFFFF" transform="matrix(1.00, 0.00, -0.00, -1.00, 528.4, 561.0)"> </text><text xml:space="preserve" font-family="Helvetica-Light" font-size="33.0" fill="#FEFFFF" transform="matrix(1.00, 0.00, -0.00, -1.00, 537.6, 561.0)">b</text><text xml:space="preserve" font-family="Helvetica-Light" font-size="33.0" fill="#FEFFFF" transform="matrix(1.00, 0.00, -0.00, -1.00, 557.8, 561.0)">e</text><text xml:space="preserve" font-family="Helvetica-Light" font-size="33.0" fill="#FEFFFF" transform="matrix(1.00, 0.00, -0.00, -1.00, 576.1, 561.0)"> </text><text xml:space="preserve" font-family="Helvetica-Light" font-size="33.0" fill="#FEFFFF" transform="matrix(1.00, 0.00, -0.00, -1.00, 585.3, 561.0)">s</text><text xml:space="preserve" font-family="Helvetica-Light" font-size="33.0" fill="#FEFFFF" transform="matrix(1.00, 0.00, -0.00, -1.00, 601.8, 561.0)">t</text><text xml:space="preserve" font-family="Helvetica-Light" font-size="33.0" fill="#FEFFFF" transform="matrix(1.00, 0.00, -0.00, -1.00, 611.0, 561.0)">y</text><text xml:space="preserve" font-family="Helvetica-Light" font-size="33.0" fill="#FEFFFF" transform="matrix(1.00, 0.00, -0.00, -1.00, 627.5, 561.0)">l</text><text xml:space="preserve" font-family="Helvetica-Light" font-size="33.0" fill="#FEFFFF" transform="matrix(1.00, 0.00, -0.00, -1.00, 634.8, 561.0)">e</text><text xml:space="preserve" font-family="Helvetica-Light" font-size="33.0" fill="#FEFFFF" transform="matrix(1.00, 0.00, -0.00, -1.00, 653.2, 561.0)">d</text><text xml:space="preserve" font-family="Helvetica-Light" font-size="33.0" fill="#FEFFFF" transform="matrix(1.00, 0.00, -0.00, -1.00, 673.3, 561.0)"> </text><text xml:space="preserve" font-family="Helvetica-Light" font-size="33.0" fill="#FEFFFF" transform="matrix(1.00, 0.00, -0.00, -1.00, 682.5, 561.0)">o</text><text xml:space="preserve" font-family="Helvetica-Light" font-size="33.0" fill="#FEFFFF" transform="matrix(1.00, 0.00, -0.00, -1.00, 700.8, 561.0)">r</text><text xml:space="preserve" font-family="Helvetica-Light" font-size="33.0" fill="#FEFFFF" transform="matrix(1.00, 0.00, -0.00, -1.00, 711.8, 561.0)"> </text><text xml:space="preserve" font-family="Helvetica-Light" font-size="33.0" fill="#FEFFFF" transform="matrix(1.00, 0.00, -0.00, -1.00, 721.0, 561.0)">p</text><text xml:space="preserve" font-family="Helvetica-Light" font-size="33.0" fill="#FEFFFF" transform="matrix(1.00, 0.00, -0.00, -1.00, 741.2, 561.0)">o</text><text xml:space="preserve" font-family="Helvetica-Light" font-size="33.0" fill="#FEFFFF" transform="matrix(1.00, 0.00, -0.00, -1.00, 759.5, 561.0)">s</text><text xml:space="preserve" font-family="Helvetica-Light" font-size="33.0" fill="#FEFFFF" transform="matrix(1.00, 0.00, -0.00, -1.00, 776.0, 561.0)">i</text><text xml:space="preserve" font-family="Helvetica-Light" font-size="33.0" fill="#FEFFFF" transform="matrix(1.00, 0.00, -0.00, -1.00, 783.3, 561.0)">t</text><text xml:space="preserve" font-family="Helvetica-Light" font-size="33.0" fill="#FEFFFF" transform="matrix(1.00, 0.00, -0.00, -1.00, 792.5, 561.0)">i</text><text xml:space="preserve" font-family="Helvetica-Light" font-size="33.0" fill="#FEFFFF" transform="matrix(1.00, 0.00, -0.00, -1.00, 799.8, 561.0)">o</text><text xml:space="preserve" font-family="Helvetica-Light" font-size="33.0" fill="#FEFFFF" transform="matrix(1.00, 0.00, -0.00, -1.00, 818.2, 561.0)">n</text><text xml:space="preserve" font-family="Helvetica-Light" font-size="33.0" fill="#FEFFFF" transform="matrix(1.00, 0.00, -0.00, -1.00, 836.5, 561.0)">e</text><text xml:space="preserve" font-family="Helvetica-Light" font-size="33.0" fill="#FEFFFF" transform="matrix(1.00, 0.00, -0.00, -1.00, 854.9, 561.0)">d</text><text xml:space="preserve" font-family="Helvetica-Light" font-size="33.0" fill="#FEFFFF" transform="matrix(1.00, 0.00, -0.00, -1.00, 875.0, 561.0)"> </text><text xml:space="preserve" font-family="Helvetica-Light" font-size="33.0" fill="#FEFFFF" transform="matrix(1.00, 0.00, -0.00, -1.00, 884.2, 561.0)">o</text><text xml:space="preserve" font-family="Helvetica-Light" font-size="33.0" fill="#FEFFFF" transform="matrix(1.00, 0.00, -0.00, -1.00, 902.6, 561.0)">n</text><text xml:space="preserve" font-family="Helvetica-Light" font-size="33.0" fill="#FEFFFF" transform="matrix(1.00, 0.00, -0.00, -1.00, 920.9, 561.0)"> </text><text xml:space="preserve" font-family="Helvetica-Light" font-size="33.0" fill="#FEFFFF" transform="matrix(1.00, 0.00, -0.00, -1.00, 114.0, 521.0)">a</text><text xml:space="preserve" font-family="Helvetica-Light" font-size="33.0" fill="#FEFFFF" transform="matrix(1.00, 0.00, -0.00, -1.00, 132.3, 521.0)"> </text><text xml:space="preserve" font-family="Helvetica-Light" font-size="33.0" fill="#FEFFFF" transform="matrix(1.00, 0.00, -0.00, -1.00, 141.5, 521.0)">W</text><text xml:space="preserve" font-family="Helvetica-Light" font-size="33.0" fill="#FEFFFF" transform="matrix(1.00, 0.00, -0.00, -1.00, 170.3, 521.0)">e</text><text xml:space="preserve" font-family="Helvetica-Light" font-size="33.0" fill="#FEFFFF" transform="matrix(1.00, 0.00, -0.00, -1.00, 188.6, 521.0)">b</text><text xml:space="preserve" font-family="Helvetica-Light" font-size="33.0" fill="#FEFFFF" transform="matrix(1.00, 0.00, -0.00, -1.00, 208.8, 521.0)">p</text><text xml:space="preserve" font-family="Helvetica-Light" font-size="33.0" fill="#FEFFFF" transform="matrix(1.00, 0.00, -0.00, -1.00, 228.9, 521.0)">a</text><text xml:space="preserve" font-family="Helvetica-Light" font-size="33.0" fill="#FEFFFF" transform="matrix(1.00, 0.00, -0.00, -1.00, 247.3, 521.0)">g</text><text xml:space="preserve" font-family="Helvetica-Light" font-size="33.0" fill="#FEFFFF" transform="matrix(1.00, 0.00, -0.00, -1.00, 267.5, 521.0)">e</text><text xml:space="preserve" font-family="Helvetica-Light" font-size="33.0" fill="#FEFFFF" transform="matrix(1.00, 0.00, -0.00, -1.00, 285.8, 521.0)">.</text><g><clipPath id="clip-1109"><path d="M 85.7 341.4 L 98.2 301.9 L 73.2 301.9 Z M 85.7 341.4 "></path></clipPath><g clip-path="url(#clip-1109)"><g><clipPath id="clip-1110"><path d="M 72.2 300.9 L 99.2 300.9 L 99.2 342.4 L 72.2 342.4 Z M 72.2 300.9 "></path></clipPath><g clip-path="url(#clip-1110)"><image xlink:href="../../31EFB80E-0C93-4DB1-AC36-88546DA9A315/assets/161283A943846B493D1C05430B672F4B.jpeg" width="128.00" height="128.00" transform="matrix(1.00, 0.00, -0.00, -1.00, 73.2, 341.4)"></image><path d="M 73.2 341.4 L 98.2 341.4 L 98.2 301.9 L 73.2 301.9 Z M 73.2 341.4 " fill="#860E00" fill-opacity="0.88"></path></g></g></g></g><g><clipPath id="clip-1111"><path d="M 24.8 357.4 L 146.7 357.4 L 146.7 406.9 L 24.8 406.9 Z M 24.8 357.4 "></path></clipPath><g clip-path="url(#clip-1111)"><text xml:space="preserve" font-family="Helvetica-Light" font-size="29.0" fill="#FEFFFF" transform="matrix(1.00, 0.00, -0.00, -1.00, 33.0, 371.0)">S</text><text xml:space="preserve" font-family="Helvetica-Light" font-size="29.0" fill="#FEFFFF" transform="matrix(1.00, 0.00, -0.00, -1.00, 50.7, 371.0)">e</text><text xml:space="preserve" font-family="Helvetica-Light" font-size="29.0" fill="#FEFFFF" transform="matrix(1.00, 0.00, -0.00, -1.00, 66.8, 371.0)">l</text><text xml:space="preserve" font-family="Helvetica-Light" font-size="29.0" fill="#FEFFFF" transform="matrix(1.00, 0.00, -0.00, -1.00, 73.3, 371.0)">e</text><text xml:space="preserve" font-family="Helvetica-Light" font-size="29.0" fill="#FEFFFF" transform="matrix(1.00, 0.00, -0.00, -1.00, 89.4, 371.0)">c</text><text xml:space="preserve" font-family="Helvetica-Light" font-size="29.0" fill="#FEFFFF" transform="matrix(1.00, 0.00, -0.00, -1.00, 105.5, 371.0)">t</text><text xml:space="preserve" font-family="Helvetica-Light" font-size="29.0" fill="#FEFFFF" transform="matrix(1.00, 0.00, -0.00, -1.00, 113.6, 371.0)">o</text><text xml:space="preserve" font-family="Helvetica-Light" font-size="29.0" fill="#FEFFFF" transform="matrix(1.00, 0.00, -0.00, -1.00, 129.7, 371.0)">r</text></g></g><g><clipPath id="clip-1112"><path d="M 257.3 341.4 L 269.8 301.9 L 244.8 301.9 Z M 257.3 341.4 "></path></clipPath><g clip-path="url(#clip-1112)"><g><clipPath id="clip-1113"><path d="M 243.8 300.9 L 270.8 300.9 L 270.8 342.4 L 243.8 342.4 Z M 243.8 300.9 "></path></clipPath><g clip-path="url(#clip-1113)"><image xlink:href="../../31EFB80E-0C93-4DB1-AC36-88546DA9A315/assets/161283A943846B493D1C05430B672F4B.jpeg" width="128.00" height="128.00" transform="matrix(1.00, 0.00, -0.00, -1.00, 244.8, 341.4)"></image><path d="M 244.8 341.4 L 269.8 341.4 L 269.8 301.9 L 244.8 301.9 Z M 244.8 341.4 " fill="#860E00" fill-opacity="0.88"></path></g></g></g></g><g><clipPath id="clip-1114"><path d="M 175.4 357.4 L 339.2 357.4 L 339.2 406.9 L 175.4 406.9 Z M 175.4 357.4 "></path></clipPath><g clip-path="url(#clip-1114)"><text xml:space="preserve" font-family="Helvetica-Light" font-size="29.0" fill="#FEFFFF" transform="matrix(1.00, 0.00, -0.00, -1.00, 183.0, 371.0)">D</text><text xml:space="preserve" font-family="Helvetica-Light" font-size="29.0" fill="#FEFFFF" transform="matrix(1.00, 0.00, -0.00, -1.00, 203.9, 371.0)">e</text><text xml:space="preserve" font-family="Helvetica-Light" font-size="29.0" fill="#FEFFFF" transform="matrix(1.00, 0.00, -0.00, -1.00, 220.1, 371.0)">c</text><text xml:space="preserve" font-family="Helvetica-Light" font-size="29.0" fill="#FEFFFF" transform="matrix(1.00, 0.00, -0.00, -1.00, 236.2, 371.0)">l</text><text xml:space="preserve" font-family="Helvetica-Light" font-size="29.0" fill="#FEFFFF" transform="matrix(1.00, 0.00, -0.00, -1.00, 242.6, 371.0)">a</text><text xml:space="preserve" font-family="Helvetica-Light" font-size="29.0" fill="#FEFFFF" transform="matrix(1.00, 0.00, -0.00, -1.00, 258.7, 371.0)">r</text><text xml:space="preserve" font-family="Helvetica-Light" font-size="29.0" fill="#FEFFFF" transform="matrix(1.00, 0.00, -0.00, -1.00, 268.4, 371.0)">a</text><text xml:space="preserve" font-family="Helvetica-Light" font-size="29.0" fill="#FEFFFF" transform="matrix(1.00, 0.00, -0.00, -1.00, 284.5, 371.0)">t</text><text xml:space="preserve" font-family="Helvetica-Light" font-size="29.0" fill="#FEFFFF" transform="matrix(1.00, 0.00, -0.00, -1.00, 292.6, 371.0)">i</text><text xml:space="preserve" font-family="Helvetica-Light" font-size="29.0" fill="#FEFFFF" transform="matrix(1.00, 0.00, -0.00, -1.00, 299.0, 371.0)">o</text><text xml:space="preserve" font-family="Helvetica-Light" font-size="29.0" fill="#FEFFFF" transform="matrix(1.00, 0.00, -0.00, -1.00, 315.2, 371.0)">n</text></g></g><g><clipPath id="clip-1115"><path d="M 210.8 145.6 L 183.8 145.6 L 183.8 187.2 L 210.8 187.2 Z M 210.8 145.6 "></path></clipPath><g clip-path="url(#clip-1115)"><path d="M 197.3 146.6 L 184.8 186.2 L 209.8 186.2 Z M 197.3 146.6 " fill="#E7A432"></path></g></g><g><clipPath id="clip-1116"><path d="M 134.8 92.8 L 259.8 92.8 L 259.8 142.3 L 134.8 142.3 Z M 134.8 92.8 "></path></clipPath><g clip-path="url(#clip-1116)"><text xml:space="preserve" font-family="Helvetica-Light" font-size="29.0" fill="#FEFFFF" transform="matrix(1.00, 0.00, -0.00, -1.00, 143.0, 107.0)">P</text><text xml:space="preserve" font-family="Helvetica-Light" font-size="29.0" fill="#FEFFFF" transform="matrix(1.00, 0.00, -0.00, -1.00, 160.7, 107.0)">r</text><text xml:space="preserve" font-family="Helvetica-Light" font-size="29.0" fill="#FEFFFF" transform="matrix(1.00, 0.00, -0.00, -1.00, 169.9, 107.0)">o</text><text xml:space="preserve" font-family="Helvetica-Light" font-size="29.0" fill="#FEFFFF" transform="matrix(1.00, 0.00, -0.00, -1.00, 186.0, 107.0)">p</text><text xml:space="preserve" font-family="Helvetica-Light" font-size="29.0" fill="#FEFFFF" transform="matrix(1.00, 0.00, -0.00, -1.00, 203.7, 107.0)">e</text><text xml:space="preserve" font-family="Helvetica-Light" font-size="29.0" fill="#FEFFFF" transform="matrix(1.00, 0.00, -0.00, -1.00, 219.8, 107.0)">r</text><text xml:space="preserve" font-family="Helvetica-Light" font-size="29.0" fill="#FEFFFF" transform="matrix(1.00, 0.00, -0.00, -1.00, 230.0, 107.0)">t</text><text xml:space="preserve" font-family="Helvetica-Light" font-size="29.0" fill="#FEFFFF" transform="matrix(1.00, 0.00, -0.00, -1.00, 238.1, 107.0)">y</text></g></g><g><clipPath id="clip-1117"><path d="M 322.4 168.0 L 295.4 168.0 L 295.4 209.6 L 322.4 209.6 Z M 322.4 168.0 "></path></clipPath><g clip-path="url(#clip-1117)"><path d="M 308.9 169.0 L 296.4 208.6 L 321.4 208.6 Z M 308.9 169.0 " fill="#42E11D"></path></g></g><g><clipPath id="clip-1118"><path d="M 265.7 115.2 L 352.1 115.2 L 352.1 164.7 L 265.7 164.7 Z M 265.7 115.2 "></path></clipPath><g clip-path="url(#clip-1118)"><text xml:space="preserve" font-family="Helvetica-Light" font-size="29.0" fill="#FEFFFF" transform="matrix(1.00, 0.00, -0.00, -1.00, 273.0, 129.0)">V</text><text xml:space="preserve" font-family="Helvetica-Light" font-size="29.0" fill="#FEFFFF" transform="matrix(1.00, 0.00, -0.00, -1.00, 289.1, 129.0)">a</text><text xml:space="preserve" font-family="Helvetica-Light" font-size="29.0" fill="#FEFFFF" transform="matrix(1.00, 0.00, -0.00, -1.00, 305.2, 129.0)">l</text><text xml:space="preserve" font-family="Helvetica-Light" font-size="29.0" fill="#FEFFFF" transform="matrix(1.00, 0.00, -0.00, -1.00, 311.7, 129.0)">u</text><text xml:space="preserve" font-family="Helvetica-Light" font-size="29.0" fill="#FEFFFF" transform="matrix(1.00, 0.00, -0.00, -1.00, 327.8, 129.0)">e</text></g></g><g><clipPath id="clip-1119"><path d="M 495.1 341.4 L 507.6 301.9 L 482.5 301.9 Z M 495.1 341.4 "></path></clipPath><g clip-path="url(#clip-1119)"><g><clipPath id="clip-1120"><path d="M 481.5 300.9 L 508.6 300.9 L 508.6 342.4 L 481.5 342.4 Z M 481.5 300.9 "></path></clipPath><g clip-path="url(#clip-1120)"><image xlink:href="../../31EFB80E-0C93-4DB1-AC36-88546DA9A315/assets/161283A943846B493D1C05430B672F4B.jpeg" width="128.00" height="128.00" transform="matrix(1.00, 0.00, -0.00, -1.00, 482.5, 341.4)"></image><path d="M 482.5 341.4 L 507.6 341.4 L 507.6 301.9 L 482.5 301.9 Z M 482.5 341.4 " fill="#860E00" fill-opacity="0.88"></path></g></g></g></g><g><clipPath id="clip-1121"><path d="M 413.2 357.4 L 576.9 357.4 L 576.9 406.9 L 413.2 406.9 Z M 413.2 357.4 "></path></clipPath><g clip-path="url(#clip-1121)"><text xml:space="preserve" font-family="Helvetica-Light" font-size="29.0" fill="#FEFFFF" transform="matrix(1.00, 0.00, -0.00, -1.00, 421.0, 371.0)">D</text><text xml:space="preserve" font-family="Helvetica-Light" font-size="29.0" fill="#FEFFFF" transform="matrix(1.00, 0.00, -0.00, -1.00, 441.9, 371.0)">e</text><text xml:space="preserve" font-family="Helvetica-Light" font-size="29.0" fill="#FEFFFF" transform="matrix(1.00, 0.00, -0.00, -1.00, 458.1, 371.0)">c</text><text xml:space="preserve" font-family="Helvetica-Light" font-size="29.0" fill="#FEFFFF" transform="matrix(1.00, 0.00, -0.00, -1.00, 474.2, 371.0)">l</text><text xml:space="preserve" font-family="Helvetica-Light" font-size="29.0" fill="#FEFFFF" transform="matrix(1.00, 0.00, -0.00, -1.00, 480.6, 371.0)">a</text><text xml:space="preserve" font-family="Helvetica-Light" font-size="29.0" fill="#FEFFFF" transform="matrix(1.00, 0.00, -0.00, -1.00, 496.7, 371.0)">r</text><text xml:space="preserve" font-family="Helvetica-Light" font-size="29.0" fill="#FEFFFF" transform="matrix(1.00, 0.00, -0.00, -1.00, 506.4, 371.0)">a</text><text xml:space="preserve" font-family="Helvetica-Light" font-size="29.0" fill="#FEFFFF" transform="matrix(1.00, 0.00, -0.00, -1.00, 522.5, 371.0)">t</text><text xml:space="preserve" font-family="Helvetica-Light" font-size="29.0" fill="#FEFFFF" transform="matrix(1.00, 0.00, -0.00, -1.00, 530.6, 371.0)">i</text><text xml:space="preserve" font-family="Helvetica-Light" font-size="29.0" fill="#FEFFFF" transform="matrix(1.00, 0.00, -0.00, -1.00, 537.0, 371.0)">o</text><text xml:space="preserve" font-family="Helvetica-Light" font-size="29.0" fill="#FEFFFF" transform="matrix(1.00, 0.00, -0.00, -1.00, 553.2, 371.0)">n</text></g></g><g><clipPath id="clip-1122"><path d="M 445.5 145.4 L 418.5 145.4 L 418.5 187.0 L 445.5 187.0 Z M 445.5 145.4 "></path></clipPath><g clip-path="url(#clip-1122)"><path d="M 432.0 146.4 L 419.5 186.0 L 444.5 186.0 Z M 432.0 146.4 " fill="#E7A432"></path></g></g><g><clipPath id="clip-1123"><path d="M 369.5 92.8 L 494.5 92.8 L 494.5 142.2 L 369.5 142.2 Z M 369.5 92.8 "></path></clipPath><g clip-path="url(#clip-1123)"><text xml:space="preserve" font-family="Helvetica-Light" font-size="29.0" fill="#FEFFFF" transform="matrix(1.00, 0.00, -0.00, -1.00, 377.0, 107.0)">P</text><text xml:space="preserve" font-family="Helvetica-Light" font-size="29.0" fill="#FEFFFF" transform="matrix(1.00, 0.00, -0.00, -1.00, 394.7, 107.0)">r</text><text xml:space="preserve" font-family="Helvetica-Light" font-size="29.0" fill="#FEFFFF" transform="matrix(1.00, 0.00, -0.00, -1.00, 403.9, 107.0)">o</text><text xml:space="preserve" font-family="Helvetica-Light" font-size="29.0" fill="#FEFFFF" transform="matrix(1.00, 0.00, -0.00, -1.00, 420.0, 107.0)">p</text><text xml:space="preserve" font-family="Helvetica-Light" font-size="29.0" fill="#FEFFFF" transform="matrix(1.00, 0.00, -0.00, -1.00, 437.7, 107.0)">e</text><text xml:space="preserve" font-family="Helvetica-Light" font-size="29.0" fill="#FEFFFF" transform="matrix(1.00, 0.00, -0.00, -1.00, 453.8, 107.0)">r</text><text xml:space="preserve" font-family="Helvetica-Light" font-size="29.0" fill="#FEFFFF" transform="matrix(1.00, 0.00, -0.00, -1.00, 464.0, 107.0)">t</text><text xml:space="preserve" font-family="Helvetica-Light" font-size="29.0" fill="#FEFFFF" transform="matrix(1.00, 0.00, -0.00, -1.00, 472.1, 107.0)">y</text></g></g><g><clipPath id="clip-1124"><path d="M 596.1 168.0 L 569.1 168.0 L 569.1 209.6 L 596.1 209.6 Z M 596.1 168.0 "></path></clipPath><g clip-path="url(#clip-1124)"><path d="M 582.6 169.0 L 570.1 208.6 L 595.1 208.6 Z M 582.6 169.0 " fill="#42E11D"></path></g></g><g><clipPath id="clip-1125"><path d="M 539.4 115.2 L 625.8 115.2 L 625.8 164.7 L 539.4 164.7 Z M 539.4 115.2 "></path></clipPath><g clip-path="url(#clip-1125)"><text xml:space="preserve" font-family="Helvetica-Light" font-size="29.0" fill="#FEFFFF" transform="matrix(1.00, 0.00, -0.00, -1.00, 547.0, 129.0)">V</text><text xml:space="preserve" font-family="Helvetica-Light" font-size="29.0" fill="#FEFFFF" transform="matrix(1.00, 0.00, -0.00, -1.00, 563.1, 129.0)">a</text><text xml:space="preserve" font-family="Helvetica-Light" font-size="29.0" fill="#FEFFFF" transform="matrix(1.00, 0.00, -0.00, -1.00, 579.2, 129.0)">l</text><text xml:space="preserve" font-family="Helvetica-Light" font-size="29.0" fill="#FEFFFF" transform="matrix(1.00, 0.00, -0.00, -1.00, 585.7, 129.0)">u</text><text xml:space="preserve" font-family="Helvetica-Light" font-size="29.0" fill="#FEFFFF" transform="matrix(1.00, 0.00, -0.00, -1.00, 601.8, 129.0)">e</text></g></g><g><clipPath id="clip-1126"><path d="M 798.9 341.4 L 811.4 301.9 L 786.4 301.9 Z M 798.9 341.4 "></path></clipPath><g clip-path="url(#clip-1126)"><g><clipPath id="clip-1127"><path d="M 785.4 300.9 L 812.4 300.9 L 812.4 342.4 L 785.4 342.4 Z M 785.4 300.9 "></path></clipPath><g clip-path="url(#clip-1127)"><image xlink:href="../../31EFB80E-0C93-4DB1-AC36-88546DA9A315/assets/161283A943846B493D1C05430B672F4B.jpeg" width="128.00" height="128.00" transform="matrix(1.00, 0.00, -0.00, -1.00, 786.4, 341.4)"></image><path d="M 786.4 341.4 L 811.4 341.4 L 811.4 301.9 L 786.4 301.9 Z M 786.4 341.4 " fill="#860E00" fill-opacity="0.88"></path></g></g></g></g><g><clipPath id="clip-1128"><path d="M 717.0 357.4 L 880.8 357.4 L 880.8 406.9 L 717.0 406.9 Z M 717.0 357.4 "></path></clipPath><g clip-path="url(#clip-1128)"><text xml:space="preserve" font-family="Helvetica-Light" font-size="29.0" fill="#FEFFFF" transform="matrix(1.00, 0.00, -0.00, -1.00, 725.0, 371.0)">D</text><text xml:space="preserve" font-family="Helvetica-Light" font-size="29.0" fill="#FEFFFF" transform="matrix(1.00, 0.00, -0.00, -1.00, 745.9, 371.0)">e</text><text xml:space="preserve" font-family="Helvetica-Light" font-size="29.0" fill="#FEFFFF" transform="matrix(1.00, 0.00, -0.00, -1.00, 762.1, 371.0)">c</text><text xml:space="preserve" font-family="Helvetica-Light" font-size="29.0" fill="#FEFFFF" transform="matrix(1.00, 0.00, -0.00, -1.00, 778.2, 371.0)">l</text><text xml:space="preserve" font-family="Helvetica-Light" font-size="29.0" fill="#FEFFFF" transform="matrix(1.00, 0.00, -0.00, -1.00, 784.6, 371.0)">a</text><text xml:space="preserve" font-family="Helvetica-Light" font-size="29.0" fill="#FEFFFF" transform="matrix(1.00, 0.00, -0.00, -1.00, 800.7, 371.0)">r</text><text xml:space="preserve" font-family="Helvetica-Light" font-size="29.0" fill="#FEFFFF" transform="matrix(1.00, 0.00, -0.00, -1.00, 810.4, 371.0)">a</text><text xml:space="preserve" font-family="Helvetica-Light" font-size="29.0" fill="#FEFFFF" transform="matrix(1.00, 0.00, -0.00, -1.00, 826.5, 371.0)">t</text><text xml:space="preserve" font-family="Helvetica-Light" font-size="29.0" fill="#FEFFFF" transform="matrix(1.00, 0.00, -0.00, -1.00, 834.6, 371.0)">i</text><text xml:space="preserve" font-family="Helvetica-Light" font-size="29.0" fill="#FEFFFF" transform="matrix(1.00, 0.00, -0.00, -1.00, 841.0, 371.0)">o</text><text xml:space="preserve" font-family="Helvetica-Light" font-size="29.0" fill="#FEFFFF" transform="matrix(1.00, 0.00, -0.00, -1.00, 857.2, 371.0)">n</text></g></g><g><clipPath id="clip-1129"><path d="M 746.7 145.4 L 719.7 145.4 L 719.7 187.0 L 746.7 187.0 Z M 746.7 145.4 "></path></clipPath><g clip-path="url(#clip-1129)"><path d="M 733.2 146.4 L 720.7 186.0 L 745.7 186.0 Z M 733.2 146.4 " fill="#E7A432"></path></g></g><g><clipPath id="clip-1130"><path d="M 670.6 92.8 L 795.7 92.8 L 795.7 142.2 L 670.6 142.2 Z M 670.6 92.8 "></path></clipPath><g clip-path="url(#clip-1130)"><text xml:space="preserve" font-family="Helvetica-Light" font-size="29.0" fill="#FEFFFF" transform="matrix(1.00, 0.00, -0.00, -1.00, 678.0, 107.0)">P</text><text xml:space="preserve" font-family="Helvetica-Light" font-size="29.0" fill="#FEFFFF" transform="matrix(1.00, 0.00, -0.00, -1.00, 695.7, 107.0)">r</text><text xml:space="preserve" font-family="Helvetica-Light" font-size="29.0" fill="#FEFFFF" transform="matrix(1.00, 0.00, -0.00, -1.00, 704.9, 107.0)">o</text><text xml:space="preserve" font-family="Helvetica-Light" font-size="29.0" fill="#FEFFFF" transform="matrix(1.00, 0.00, -0.00, -1.00, 721.0, 107.0)">p</text><text xml:space="preserve" font-family="Helvetica-Light" font-size="29.0" fill="#FEFFFF" transform="matrix(1.00, 0.00, -0.00, -1.00, 738.7, 107.0)">e</text><text xml:space="preserve" font-family="Helvetica-Light" font-size="29.0" fill="#FEFFFF" transform="matrix(1.00, 0.00, -0.00, -1.00, 754.8, 107.0)">r</text><text xml:space="preserve" font-family="Helvetica-Light" font-size="29.0" fill="#FEFFFF" transform="matrix(1.00, 0.00, -0.00, -1.00, 765.0, 107.0)">t</text><text xml:space="preserve" font-family="Helvetica-Light" font-size="29.0" fill="#FEFFFF" transform="matrix(1.00, 0.00, -0.00, -1.00, 773.1, 107.0)">y</text></g></g><g><clipPath id="clip-1131"><path d="M 886.2 170.9 L 859.2 170.9 L 859.2 212.5 L 886.2 212.5 Z M 886.2 170.9 "></path></clipPath><g clip-path="url(#clip-1131)"><path d="M 872.7 171.9 L 860.2 211.5 L 885.2 211.5 Z M 872.7 171.9 " fill="#42E11D"></path></g></g><g><clipPath id="clip-1132"><path d="M 829.5 118.1 L 915.9 118.1 L 915.9 167.6 L 829.5 167.6 Z M 829.5 118.1 "></path></clipPath><g clip-path="url(#clip-1132)"><text xml:space="preserve" font-family="Helvetica-Light" font-size="29.0" fill="#FEFFFF" transform="matrix(1.00, 0.00, -0.00, -1.00, 837.0, 132.0)">V</text><text xml:space="preserve" font-family="Helvetica-Light" font-size="29.0" fill="#FEFFFF" transform="matrix(1.00, 0.00, -0.00, -1.00, 853.1, 132.0)">a</text><text xml:space="preserve" font-family="Helvetica-Light" font-size="29.0" fill="#FEFFFF" transform="matrix(1.00, 0.00, -0.00, -1.00, 869.2, 132.0)">l</text><text xml:space="preserve" font-family="Helvetica-Light" font-size="29.0" fill="#FEFFFF" transform="matrix(1.00, 0.00, -0.00, -1.00, 875.7, 132.0)">u</text><text xml:space="preserve" font-family="Helvetica-Light" font-size="29.0" fill="#FEFFFF" transform="matrix(1.00, 0.00, -0.00, -1.00, 891.8, 132.0)">e</text></g></g></g></svg>