<?xml version="1.0" encoding="UTF-8" standalone="no"?><svg xmlns="http://www.w3.org/2000/svg" xmlns:xlink="http://www.w3.org/1999/xlink" clip-rule="evenodd" stroke-miterlimit="4.00" viewBox="0 0 1024 768"><desc>SVG generated by Keynote</desc><defs><pattern id="0B5682BF-BB4C-4205-B824-B0206A7BD380" patternUnits="userSpaceOnUse" width="178" height="178" viewBox="0 0 178 178" patternTransform="matrix(0.719101, 0.000000, 0.000000, -0.719101, 183.085000, 741.892600)"><image xlink:href="../../26F48F0A-F591-4C46-BED7-ED6C9CCAF82A/assets/01BD9B630741A14858075F16353204BA.jpeg" width="178.00" height="178.00"></image></pattern></defs><g transform="matrix(1.00, 0.00, -0.00, -1.00, 0.0, 768.0)"><path d="M 0.0 768.0 L 1024.0 768.0 L 1024.0 0.0 L 0.0 0.0 Z M 0.0 768.0 " fill="#000000"></path><g><clipPath id="clip-1137"><path d="M 183.1 741.9 L 399.9 741.9 L 399.9 655.2 L 183.1 655.2 Z M 183.1 741.9 "></path></clipPath><g clip-path="url(#clip-1137)"><g><clipPath id="clip-1138"><path d="M 182.1 654.2 L 400.9 654.2 L 400.9 742.9 L 182.1 742.9 Z M 182.1 654.2 "></path></clipPath><g clip-path="url(#clip-1138)"><path d="M 183.1 655.2 L 399.9 655.2 L 399.9 741.9 L 183.1 741.9 Z M 183.1 655.2 " fill="url(#0B5682BF-BB4C-4205-B824-B0206A7BD380)"></path><path d="M 183.1 741.9 L 399.9 741.9 L 399.9 655.2 L 183.1 655.2 Z M 183.1 741.9 " fill="#04599E" fill-opacity="0.85"></path></g></g></g></g><g><clipPath id="clip-1139"><path d="M 188.8 637.5 L 394.2 637.5 L 394.2 759.5 L 188.8 759.5 Z M 188.8 637.5 "></path></clipPath><g clip-path="url(#clip-1139)"><text xml:space="preserve" font-family="Helvetica-Light" font-size="72.0" fill="#FEFFFF" transform="matrix(1.00, 0.00, -0.00, -1.00, 207.0, 672.0)">c</text><text xml:space="preserve" font-family="Helvetica-Light" font-size="72.0" fill="#FEFFFF" transform="matrix(1.00, 0.00, -0.00, -1.00, 247.0, 672.0)">l</text><text xml:space="preserve" font-family="Helvetica-Light" font-size="72.0" fill="#FEFFFF" transform="matrix(1.00, 0.00, -0.00, -1.00, 263.0, 672.0)">a</text><text xml:space="preserve" font-family="Helvetica-Light" font-size="72.0" fill="#FEFFFF" transform="matrix(1.00, 0.00, -0.00, -1.00, 303.0, 672.0)">s</text><text xml:space="preserve" font-family="Helvetica-Light" font-size="72.0" fill="#FEFFFF" transform="matrix(1.00, 0.00, -0.00, -1.00, 339.0, 672.0)">s</text></g></g><g><clipPath id="clip-1140"><path d="M 259.4 315.9 C 278.9 296.3 278.9 264.7 259.4 245.1 C 239.8 225.6 208.2 225.6 188.6 245.1 C 169.1 264.7 169.1 296.3 188.6 315.9 C 208.2 335.4 239.8 335.4 259.4 315.9 Z M 259.4 315.9 "></path></clipPath><g clip-path="url(#clip-1140)"><g><clipPath id="clip-1141"><path d="M 173.0 229.5 L 275.0 229.5 L 275.0 331.5 L 173.0 331.5 Z M 173.0 229.5 "></path></clipPath><g clip-path="url(#clip-1141)"><image xlink:href="../../26F48F0A-F591-4C46-BED7-ED6C9CCAF82A/assets/01BD9B630741A14858075F16353204BA.jpeg" width="178.00" height="178.00" transform="matrix(0.72, 0.00, -0.00, -0.72, 174.0, 330.5)"></image><path d="M 174.0 330.5 L 274.0 330.5 L 274.0 230.5 L 174.0 230.5 Z M 174.0 330.5 " fill="#860E00" fill-opacity="0.88"></path></g></g></g></g><g><clipPath id="clip-1142"><path d="M 403.4 315.9 C 422.9 296.3 422.9 264.7 403.4 245.1 C 383.8 225.6 352.2 225.6 332.6 245.1 C 313.1 264.7 313.1 296.3 332.6 315.9 C 352.2 335.4 383.8 335.4 403.4 315.9 Z M 403.4 315.9 "></path></clipPath><g clip-path="url(#clip-1142)"><g><clipPath id="clip-1143"><path d="M 317.0 229.5 L 419.0 229.5 L 419.0 331.5 L 317.0 331.5 Z M 317.0 229.5 "></path></clipPath><g clip-path="url(#clip-1143)"><image xlink:href="../../26F48F0A-F591-4C46-BED7-ED6C9CCAF82A/assets/01BD9B630741A14858075F16353204BA.jpeg" width="178.00" height="178.00" transform="matrix(0.72, 0.00, -0.00, -0.72, 318.0, 330.5)"></image><path d="M 318.0 330.5 L 418.0 330.5 L 418.0 230.5 L 318.0 230.5 Z M 318.0 330.5 " fill="#860E00" fill-opacity="0.88"></path></g></g></g></g><g><clipPath id="clip-1144"><path d="M 547.4 315.9 C 566.9 296.3 566.9 264.7 547.4 245.1 C 527.8 225.6 496.2 225.6 476.6 245.1 C 457.1 264.7 457.1 296.3 476.6 315.9 C 496.2 335.4 527.8 335.4 547.4 315.9 Z M 547.4 315.9 "></path></clipPath><g clip-path="url(#clip-1144)"><g><clipPath id="clip-1145"><path d="M 461.0 229.5 L 563.0 229.5 L 563.0 331.5 L 461.0 331.5 Z M 461.0 229.5 "></path></clipPath><g clip-path="url(#clip-1145)"><image xlink:href="../../26F48F0A-F591-4C46-BED7-ED6C9CCAF82A/assets/01BD9B630741A14858075F16353204BA.jpeg" width="178.00" height="178.00" transform="matrix(0.72, 0.00, -0.00, -0.72, 462.0, 330.5)"></image><path d="M 462.0 330.5 L 562.0 330.5 L 562.0 230.5 L 462.0 230.5 Z M 462.0 330.5 " fill="#860E00" fill-opacity="0.88"></path></g></g></g></g><g><clipPath id="clip-1146"><path d="M 691.4 315.9 C 710.9 296.3 710.9 264.7 691.4 245.1 C 671.8 225.6 640.2 225.6 620.6 245.1 C 601.1 264.7 601.1 296.3 620.6 315.9 C 640.2 335.4 671.8 335.4 691.4 315.9 Z M 691.4 315.9 "></path></clipPath><g clip-path="url(#clip-1146)"><g><clipPath id="clip-1147"><path d="M 605.0 229.5 L 707.0 229.5 L 707.0 331.5 L 605.0 331.5 Z M 605.0 229.5 "></path></clipPath><g clip-path="url(#clip-1147)"><image xlink:href="../../26F48F0A-F591-4C46-BED7-ED6C9CCAF82A/assets/01BD9B630741A14858075F16353204BA.jpeg" width="178.00" height="178.00" transform="matrix(0.72, 0.00, -0.00, -0.72, 606.0, 330.5)"></image><path d="M 606.0 330.5 L 706.0 330.5 L 706.0 230.5 L 606.0 230.5 Z M 606.0 330.5 " fill="#860E00" fill-opacity="0.88"></path></g></g></g></g><g><clipPath id="clip-1148"><path d="M 835.4 315.9 C 854.9 296.3 854.9 264.7 835.4 245.1 C 815.8 225.6 784.2 225.6 764.6 245.1 C 745.1 264.7 745.1 296.3 764.6 315.9 C 784.2 335.4 815.8 335.4 835.4 315.9 Z M 835.4 315.9 "></path></clipPath><g clip-path="url(#clip-1148)"><g><clipPath id="clip-1149"><path d="M 749.0 229.5 L 851.0 229.5 L 851.0 331.5 L 749.0 331.5 Z M 749.0 229.5 "></path></clipPath><g clip-path="url(#clip-1149)"><image xlink:href="../../26F48F0A-F591-4C46-BED7-ED6C9CCAF82A/assets/01BD9B630741A14858075F16353204BA.jpeg" width="178.00" height="178.00" transform="matrix(0.72, 0.00, -0.00, -0.72, 750.0, 330.5)"></image><path d="M 750.0 330.5 L 850.0 330.5 L 850.0 230.5 L 750.0 230.5 Z M 750.0 330.5 " fill="#860E00" fill-opacity="0.88"></path></g></g></g></g><path d="M 111.0 538.1 L 376.3 538.1 L 376.3 497.3 L 111.0 497.3 Z M 111.0 538.1 " fill="#A95EA9"></path><text xml:space="preserve" font-family="Helvetica-Light" font-size="36.0" fill="#FEFFFF" transform="matrix(1.00, 0.00, -0.00, -1.00, 114.0, 550.0)">A</text><text xml:space="preserve" font-family="Helvetica-Light" font-size="36.0" fill="#FEFFFF" transform="matrix(1.00, 0.00, -0.00, -1.00, 138.0, 550.0)"> </text><text xml:space="preserve" font-family="Helvetica-Light" font-size="36.0" fill="#FEFFFF" transform="matrix(1.00, 0.00, -0.00, -1.00, 148.0, 550.0)">g</text><text xml:space="preserve" font-family="Helvetica-Light" font-size="36.0" fill="#FEFFFF" transform="matrix(1.00, 0.00, -0.00, -1.00, 170.0, 550.0)">r</text><text xml:space="preserve" font-family="Helvetica-Light" font-size="36.0" fill="#FEFFFF" transform="matrix(1.00, 0.00, -0.00, -1.00, 181.4, 550.0)">o</text><text xml:space="preserve" font-family="Helvetica-Light" font-size="36.0" fill="#FEFFFF" transform="matrix(1.00, 0.00, -0.00, -1.00, 201.4, 550.0)">u</text><text xml:space="preserve" font-family="Helvetica-Light" font-size="36.0" fill="#FEFFFF" transform="matrix(1.00, 0.00, -0.00, -1.00, 221.4, 550.0)">p</text><text xml:space="preserve" font-family="Helvetica-Light" font-size="36.0" fill="#FEFFFF" transform="matrix(1.00, 0.00, -0.00, -1.00, 243.4, 550.0)"> </text><text xml:space="preserve" font-family="Helvetica-Light" font-size="36.0" fill="#FEFFFF" transform="matrix(1.00, 0.00, -0.00, -1.00, 253.4, 550.0)">o</text><text xml:space="preserve" font-family="Helvetica-Light" font-size="36.0" fill="#FEFFFF" transform="matrix(1.00, 0.00, -0.00, -1.00, 273.4, 550.0)">f</text><text xml:space="preserve" font-family="Helvetica-Light" font-size="36.0" fill="#FEFFFF" transform="matrix(1.00, 0.00, -0.00, -1.00, 283.4, 550.0)"> </text><text xml:space="preserve" font-family="Helvetica-Light" font-size="36.0" fill="#FEFFFF" transform="matrix(1.00, 0.00, -0.00, -1.00, 293.4, 550.0)">5</text><text xml:space="preserve" font-family="Helvetica-Light" font-size="36.0" fill="#FEFFFF" transform="matrix(1.00, 0.00, -0.00, -1.00, 313.4, 550.0)"> </text><text xml:space="preserve" font-family="Helvetica-Light" font-size="36.0" fill="#FEFFFF" transform="matrix(1.00, 0.00, -0.00, -1.00, 323.4, 550.0)">c</text><text xml:space="preserve" font-family="Helvetica-Light" font-size="36.0" fill="#FEFFFF" transform="matrix(1.00, 0.00, -0.00, -1.00, 343.5, 550.0)">i</text><text xml:space="preserve" font-family="Helvetica-Light" font-size="36.0" fill="#FEFFFF" transform="matrix(1.00, 0.00, -0.00, -1.00, 351.5, 550.0)">r</text><text xml:space="preserve" font-family="Helvetica-Light" font-size="36.0" fill="#FEFFFF" transform="matrix(1.00, 0.00, -0.00, -1.00, 362.8, 550.0)">c</text><text xml:space="preserve" font-family="Helvetica-Light" font-size="36.0" fill="#FEFFFF" transform="matrix(1.00, 0.00, -0.00, -1.00, 382.8, 550.0)">l</text><text xml:space="preserve" font-family="Helvetica-Light" font-size="36.0" fill="#FEFFFF" transform="matrix(1.00, 0.00, -0.00, -1.00, 390.8, 550.0)">e</text><text xml:space="preserve" font-family="Helvetica-Light" font-size="36.0" fill="#FEFFFF" transform="matrix(1.00, 0.00, -0.00, -1.00, 410.8, 550.0)">s</text><text xml:space="preserve" font-family="Helvetica-Light" font-size="36.0" fill="#FEFFFF" transform="matrix(1.00, 0.00, -0.00, -1.00, 428.8, 550.0)"> </text><text xml:space="preserve" font-family="Helvetica-Light" font-size="36.0" fill="#FEFFFF" transform="matrix(1.00, 0.00, -0.00, -1.00, 438.8, 550.0)">i</text><text xml:space="preserve" font-family="Helvetica-Light" font-size="36.0" fill="#FEFFFF" transform="matrix(1.00, 0.00, -0.00, -1.00, 446.8, 550.0)">s</text><text xml:space="preserve" font-family="Helvetica-Light" font-size="36.0" fill="#FEFFFF" transform="matrix(1.00, 0.00, -0.00, -1.00, 464.8, 550.0)"> </text><text xml:space="preserve" font-family="Helvetica-Light" font-size="36.0" fill="#FEFFFF" transform="matrix(1.00, 0.00, -0.00, -1.00, 474.8, 550.0)">g</text><text xml:space="preserve" font-family="Helvetica-Light" font-size="36.0" fill="#FEFFFF" transform="matrix(1.00, 0.00, -0.00, -1.00, 496.8, 550.0)">i</text><text xml:space="preserve" font-family="Helvetica-Light" font-size="36.0" fill="#FEFFFF" transform="matrix(1.00, 0.00, -0.00, -1.00, 504.8, 550.0)">v</text><text xml:space="preserve" font-family="Helvetica-Light" font-size="36.0" fill="#FEFFFF" transform="matrix(1.00, 0.00, -0.00, -1.00, 522.8, 550.0)">e</text><text xml:space="preserve" font-family="Helvetica-Light" font-size="36.0" fill="#FEFFFF" transform="matrix(1.00, 0.00, -0.00, -1.00, 542.8, 550.0)">n</text><text xml:space="preserve" font-family="Helvetica-Light" font-size="36.0" fill="#FEFFFF" transform="matrix(1.00, 0.00, -0.00, -1.00, 562.8, 550.0)"> </text><text xml:space="preserve" font-family="Helvetica-Light" font-size="36.0" fill="#FEFFFF" transform="matrix(1.00, 0.00, -0.00, -1.00, 572.9, 550.0)">a</text><text xml:space="preserve" font-family="Helvetica-Light" font-size="36.0" fill="#FEFFFF" transform="matrix(1.00, 0.00, -0.00, -1.00, 592.9, 550.0)"> </text><text xml:space="preserve" font-family="Helvetica-Light" font-size="36.0" fill="#FEFFFF" transform="matrix(1.00, 0.00, -0.00, -1.00, 602.9, 550.0)">c</text><text xml:space="preserve" font-family="Helvetica-Light" font-size="36.0" fill="#FEFFFF" transform="matrix(1.00, 0.00, -0.00, -1.00, 622.9, 550.0)">l</text><text xml:space="preserve" font-family="Helvetica-Light" font-size="36.0" fill="#FEFFFF" transform="matrix(1.00, 0.00, -0.00, -1.00, 630.9, 550.0)">a</text><text xml:space="preserve" font-family="Helvetica-Light" font-size="36.0" fill="#FEFFFF" transform="matrix(1.00, 0.00, -0.00, -1.00, 650.9, 550.0)">s</text><text xml:space="preserve" font-family="Helvetica-Light" font-size="36.0" fill="#FEFFFF" transform="matrix(1.00, 0.00, -0.00, -1.00, 668.9, 550.0)">s</text><text xml:space="preserve" font-family="Helvetica-Light" font-size="36.0" fill="#FEFFFF" transform="matrix(1.00, 0.00, -0.00, -1.00, 686.9, 550.0)"> </text><text xml:space="preserve" font-family="Helvetica-Light" font-size="36.0" fill="#FEFFFF" transform="matrix(1.00, 0.00, -0.00, -1.00, 696.9, 550.0)">c</text><text xml:space="preserve" font-family="Helvetica-Light" font-size="36.0" fill="#FEFFFF" transform="matrix(1.00, 0.00, -0.00, -1.00, 716.9, 550.0)">a</text><text xml:space="preserve" font-family="Helvetica-Light" font-size="36.0" fill="#FEFFFF" transform="matrix(1.00, 0.00, -0.00, -1.00, 736.9, 550.0)">l</text><text xml:space="preserve" font-family="Helvetica-Light" font-size="36.0" fill="#FEFFFF" transform="matrix(1.00, 0.00, -0.00, -1.00, 744.9, 550.0)">l</text><text xml:space="preserve" font-family="Helvetica-Light" font-size="36.0" fill="#FEFFFF" transform="matrix(1.00, 0.00, -0.00, -1.00, 752.9, 550.0)">e</text><text xml:space="preserve" font-family="Helvetica-Light" font-size="36.0" fill="#FEFFFF" transform="matrix(1.00, 0.00, -0.00, -1.00, 772.9, 550.0)">d</text><text xml:space="preserve" font-family="Helvetica-Light" font-size="36.0" fill="#FEFFFF" transform="matrix(1.00, 0.00, -0.00, -1.00, 794.9, 550.0)"> </text><text xml:space="preserve" font-family="Helvetica-Light" font-size="36.0" fill="#FEFFFF" transform="matrix(1.00, 0.00, -0.00, -1.00, 114.0, 507.0)">“</text><text xml:space="preserve" font-family="Helvetica-Light" font-size="36.0" fill="#FEFFFF" transform="matrix(1.00, 0.00, -0.00, -1.00, 128.0, 507.0)">l</text><text xml:space="preserve" font-family="Helvetica-Light" font-size="36.0" fill="#FEFFFF" transform="matrix(1.00, 0.00, -0.00, -1.00, 136.0, 507.0)">o</text><text xml:space="preserve" font-family="Helvetica-Light" font-size="36.0" fill="#FEFFFF" transform="matrix(1.00, 0.00, -0.00, -1.00, 156.0, 507.0)">s</text><text xml:space="preserve" font-family="Helvetica-Light" font-size="36.0" fill="#FEFFFF" transform="matrix(1.00, 0.00, -0.00, -1.00, 174.0, 507.0)">t</text><text xml:space="preserve" font-family="Helvetica-Light" font-size="36.0" fill="#FEFFFF" transform="matrix(1.00, 0.00, -0.00, -1.00, 184.0, 507.0)">M</text><text xml:space="preserve" font-family="Helvetica-Light" font-size="36.0" fill="#FEFFFF" transform="matrix(1.00, 0.00, -0.00, -1.00, 214.0, 507.0)">y</text><text xml:space="preserve" font-family="Helvetica-Light" font-size="36.0" fill="#FEFFFF" transform="matrix(1.00, 0.00, -0.00, -1.00, 232.0, 507.0)">M</text><text xml:space="preserve" font-family="Helvetica-Light" font-size="36.0" fill="#FEFFFF" transform="matrix(1.00, 0.00, -0.00, -1.00, 262.0, 507.0)">a</text><text xml:space="preserve" font-family="Helvetica-Light" font-size="36.0" fill="#FEFFFF" transform="matrix(1.00, 0.00, -0.00, -1.00, 282.0, 507.0)">r</text><text xml:space="preserve" font-family="Helvetica-Light" font-size="36.0" fill="#FEFFFF" transform="matrix(1.00, 0.00, -0.00, -1.00, 294.0, 507.0)">b</text><text xml:space="preserve" font-family="Helvetica-Light" font-size="36.0" fill="#FEFFFF" transform="matrix(1.00, 0.00, -0.00, -1.00, 316.0, 507.0)">l</text><text xml:space="preserve" font-family="Helvetica-Light" font-size="36.0" fill="#FEFFFF" transform="matrix(1.00, 0.00, -0.00, -1.00, 324.0, 507.0)">e</text><text xml:space="preserve" font-family="Helvetica-Light" font-size="36.0" fill="#FEFFFF" transform="matrix(1.00, 0.00, -0.00, -1.00, 344.0, 507.0)">s</text><text xml:space="preserve" font-family="Helvetica-Light" font-size="36.0" fill="#FEFFFF" transform="matrix(1.00, 0.00, -0.00, -1.00, 362.0, 507.0)">”</text><text xml:space="preserve" font-family="Helvetica-Light" font-size="36.0" fill="#FEFFFF" transform="matrix(1.00, 0.00, -0.00, -1.00, 376.0, 507.0)"> </text><text xml:space="preserve" font-family="Helvetica-Light" font-size="36.0" fill="#FEFFFF" transform="matrix(1.00, 0.00, -0.00, -1.00, 386.0, 507.0)">a</text><text xml:space="preserve" font-family="Helvetica-Light" font-size="36.0" fill="#FEFFFF" transform="matrix(1.00, 0.00, -0.00, -1.00, 406.0, 507.0)">n</text><text xml:space="preserve" font-family="Helvetica-Light" font-size="36.0" fill="#FEFFFF" transform="matrix(1.00, 0.00, -0.00, -1.00, 426.0, 507.0)">d</text><text xml:space="preserve" font-family="Helvetica-Light" font-size="36.0" fill="#FEFFFF" transform="matrix(1.00, 0.00, -0.00, -1.00, 448.0, 507.0)"> </text><text xml:space="preserve" font-family="Helvetica-Light" font-size="36.0" fill="#FEFFFF" transform="matrix(1.00, 0.00, -0.00, -1.00, 458.1, 507.0)">s</text><text xml:space="preserve" font-family="Helvetica-Light" font-size="36.0" fill="#FEFFFF" transform="matrix(1.00, 0.00, -0.00, -1.00, 476.1, 507.0)">t</text><text xml:space="preserve" font-family="Helvetica-Light" font-size="36.0" fill="#FEFFFF" transform="matrix(1.00, 0.00, -0.00, -1.00, 486.1, 507.0)">y</text><text xml:space="preserve" font-family="Helvetica-Light" font-size="36.0" fill="#FEFFFF" transform="matrix(1.00, 0.00, -0.00, -1.00, 504.1, 507.0)">l</text><text xml:space="preserve" font-family="Helvetica-Light" font-size="36.0" fill="#FEFFFF" transform="matrix(1.00, 0.00, -0.00, -1.00, 512.1, 507.0)">e</text><text xml:space="preserve" font-family="Helvetica-Light" font-size="36.0" fill="#FEFFFF" transform="matrix(1.00, 0.00, -0.00, -1.00, 532.1, 507.0)">d</text><text xml:space="preserve" font-family="Helvetica-Light" font-size="36.0" fill="#FEFFFF" transform="matrix(1.00, 0.00, -0.00, -1.00, 554.1, 507.0)"> </text><text xml:space="preserve" font-family="Helvetica-Light" font-size="36.0" fill="#FEFFFF" transform="matrix(1.00, 0.00, -0.00, -1.00, 564.1, 507.0)">r</text><text xml:space="preserve" font-family="Helvetica-Light" font-size="36.0" fill="#FEFFFF" transform="matrix(1.00, 0.00, -0.00, -1.00, 575.4, 507.0)">e</text><text xml:space="preserve" font-family="Helvetica-Light" font-size="36.0" fill="#FEFFFF" transform="matrix(1.00, 0.00, -0.00, -1.00, 595.4, 507.0)">d</text><text xml:space="preserve" font-family="Helvetica-Light" font-size="36.0" fill="#FEFFFF" transform="matrix(1.00, 0.00, -0.00, -1.00, 617.4, 507.0)">:</text></g></svg>