<?xml version="1.0" encoding="UTF-8" standalone="no"?><svg xmlns="http://www.w3.org/2000/svg" xmlns:xlink="http://www.w3.org/1999/xlink" clip-rule="evenodd" stroke-miterlimit="4.00" viewBox="0 0 902 137"><desc>SVG generated by Keynote</desc><defs><pattern id="305B903D-C46F-4293-BB32-801374727FA7" patternUnits="userSpaceOnUse" width="178" height="178" viewBox="0 0 178 178" patternTransform="matrix(0.719101, 0.000000, 0.000000, -0.719101, 77.084960, 131.892600)"><image xlink:href="../../26F48F0A-F591-4C46-BED7-ED6C9CCAF82A/assets/01BD9B630741A14858075F16353204BA.jpeg" width="178.00" height="178.00"></image></pattern></defs><g transform="matrix(1.00, 0.00, -0.00, -1.00, 0.0, 137.0)"><g><clipPath id="clip-1603"><path d="M -4.0 -3.5 L 1791.2 -3.5 L 1791.2 100.5 L -4.0 100.5 Z M -4.0 -3.5 "></path></clipPath><g clip-path="url(#clip-1603)"><text xml:space="preserve" font-family="Helvetica-Light" font-size="36.0" fill="#FEFFFF" transform="matrix(1.00, 0.00, -0.00, -1.00, 5.0, 57.0)">T</text><text xml:space="preserve" font-family="Helvetica-Light" font-size="36.0" fill="#FEFFFF" transform="matrix(1.00, 0.00, -0.00, -1.00, 25.0, 57.0)">h</text><text xml:space="preserve" font-family="Helvetica-Light" font-size="36.0" fill="#FEFFFF" transform="matrix(1.00, 0.00, -0.00, -1.00, 45.0, 57.0)">e</text><text xml:space="preserve" font-family="Helvetica-Light" font-size="36.0" fill="#FEFFFF" transform="matrix(1.00, 0.00, -0.00, -1.00, 65.0, 57.0)"> </text><text xml:space="preserve" font-family="Helvetica-Light" font-size="36.0" fill="#FEFFFF" transform="matrix(1.00, 0.00, -0.00, -1.00, 75.1, 57.0)"> </text><text xml:space="preserve" font-family="Helvetica-Light" font-size="36.0" fill="#FEFFFF" transform="matrix(1.00, 0.00, -0.00, -1.00, 85.1, 57.0)"> </text><text xml:space="preserve" font-family="Helvetica-Light" font-size="36.0" fill="#FEFFFF" transform="matrix(1.00, 0.00, -0.00, -1.00, 95.1, 57.0)"> </text><text xml:space="preserve" font-family="Helvetica-Light" font-size="36.0" fill="#FEFFFF" transform="matrix(1.00, 0.00, -0.00, -1.00, 105.1, 57.0)"> </text><text xml:space="preserve" font-family="Helvetica-Light" font-size="36.0" fill="#FEFFFF" transform="matrix(1.00, 0.00, -0.00, -1.00, 115.1, 57.0)"> </text><text xml:space="preserve" font-family="Helvetica-Light" font-size="36.0" fill="#FEFFFF" transform="matrix(1.00, 0.00, -0.00, -1.00, 125.1, 57.0)"> </text><text xml:space="preserve" font-family="Helvetica-Light" font-size="36.0" fill="#FEFFFF" transform="matrix(1.00, 0.00, -0.00, -1.00, 135.1, 57.0)"> </text><text xml:space="preserve" font-family="Helvetica-Light" font-size="36.0" fill="#FEFFFF" transform="matrix(1.00, 0.00, -0.00, -1.00, 145.1, 57.0)"> </text><text xml:space="preserve" font-family="Helvetica-Light" font-size="36.0" fill="#FEFFFF" transform="matrix(1.00, 0.00, -0.00, -1.00, 155.1, 57.0)"> </text><text xml:space="preserve" font-family="Helvetica-Light" font-size="36.0" fill="#FEFFFF" transform="matrix(1.00, 0.00, -0.00, -1.00, 165.1, 57.0)"> </text><text xml:space="preserve" font-family="Helvetica-Light" font-size="36.0" fill="#FEFFFF" transform="matrix(1.00, 0.00, -0.00, -1.00, 175.1, 57.0)"> </text><text xml:space="preserve" font-family="Helvetica-Light" font-size="36.0" fill="#FEFFFF" transform="matrix(1.00, 0.00, -0.00, -1.00, 185.1, 57.0)"> </text><text xml:space="preserve" font-family="Helvetica-Light" font-size="36.0" fill="#FEFFFF" transform="matrix(1.00, 0.00, -0.00, -1.00, 195.2, 57.0)"> </text><text xml:space="preserve" font-family="Helvetica-Light" font-size="36.0" fill="#FEFFFF" transform="matrix(1.00, 0.00, -0.00, -1.00, 205.2, 57.0)"> </text><text xml:space="preserve" font-family="Helvetica-Light" font-size="36.0" fill="#FEFFFF" transform="matrix(1.00, 0.00, -0.00, -1.00, 215.2, 57.0)"> </text><text xml:space="preserve" font-family="Helvetica-Light" font-size="36.0" fill="#FEFFFF" transform="matrix(1.00, 0.00, -0.00, -1.00, 225.2, 57.0)"> </text><text xml:space="preserve" font-family="Helvetica-Light" font-size="36.0" fill="#FEFFFF" transform="matrix(1.00, 0.00, -0.00, -1.00, 235.2, 57.0)"> </text><text xml:space="preserve" font-family="Helvetica-Light" font-size="36.0" fill="#FEFFFF" transform="matrix(1.00, 0.00, -0.00, -1.00, 245.2, 57.0)"> </text><text xml:space="preserve" font-family="Helvetica-Light" font-size="36.0" fill="#FEFFFF" transform="matrix(1.00, 0.00, -0.00, -1.00, 255.2, 57.0)"> </text><text xml:space="preserve" font-family="Helvetica-Light" font-size="36.0" fill="#FEFFFF" transform="matrix(1.00, 0.00, -0.00, -1.00, 265.2, 57.0)"> </text><text xml:space="preserve" font-family="Helvetica-Light" font-size="36.0" fill="#FEFFFF" transform="matrix(1.00, 0.00, -0.00, -1.00, 275.2, 57.0)"> </text><text xml:space="preserve" font-family="Helvetica-Light" font-size="36.0" fill="#FEFFFF" transform="matrix(1.00, 0.00, -0.00, -1.00, 285.2, 57.0)"> </text><text xml:space="preserve" font-family="Helvetica-Light" font-size="36.0" fill="#FEFFFF" transform="matrix(1.00, 0.00, -0.00, -1.00, 295.2, 57.0)"> </text><text xml:space="preserve" font-family="Helvetica-Light" font-size="36.0" fill="#FEFFFF" transform="matrix(1.00, 0.00, -0.00, -1.00, 305.2, 57.0)">s</text><text xml:space="preserve" font-family="Helvetica-Light" font-size="36.0" fill="#FEFFFF" transform="matrix(1.00, 0.00, -0.00, -1.00, 323.2, 57.0)">e</text><text xml:space="preserve" font-family="Helvetica-Light" font-size="36.0" fill="#FEFFFF" transform="matrix(1.00, 0.00, -0.00, -1.00, 343.3, 57.0)">l</text><text xml:space="preserve" font-family="Helvetica-Light" font-size="36.0" fill="#FEFFFF" transform="matrix(1.00, 0.00, -0.00, -1.00, 351.2, 57.0)">e</text><text xml:space="preserve" font-family="Helvetica-Light" font-size="36.0" fill="#FEFFFF" transform="matrix(1.00, 0.00, -0.00, -1.00, 371.3, 57.0)">c</text><text xml:space="preserve" font-family="Helvetica-Light" font-size="36.0" fill="#FEFFFF" transform="matrix(1.00, 0.00, -0.00, -1.00, 391.3, 57.0)">t</text><text xml:space="preserve" font-family="Helvetica-Light" font-size="36.0" fill="#FEFFFF" transform="matrix(1.00, 0.00, -0.00, -1.00, 401.3, 57.0)">o</text><text xml:space="preserve" font-family="Helvetica-Light" font-size="36.0" fill="#FEFFFF" transform="matrix(1.00, 0.00, -0.00, -1.00, 421.3, 57.0)">r</text><text xml:space="preserve" font-family="Helvetica-Light" font-size="36.0" fill="#FEFFFF" transform="matrix(1.00, 0.00, -0.00, -1.00, 433.3, 57.0)"> </text><text xml:space="preserve" font-family="Helvetica-Light" font-size="36.0" fill="#FEFFFF" transform="matrix(1.00, 0.00, -0.00, -1.00, 443.3, 57.0)">a</text><text xml:space="preserve" font-family="Helvetica-Light" font-size="36.0" fill="#FEFFFF" transform="matrix(1.00, 0.00, -0.00, -1.00, 463.3, 57.0)">l</text><text xml:space="preserve" font-family="Helvetica-Light" font-size="36.0" fill="#FEFFFF" transform="matrix(1.00, 0.00, -0.00, -1.00, 471.3, 57.0)">l</text><text xml:space="preserve" font-family="Helvetica-Light" font-size="36.0" fill="#FEFFFF" transform="matrix(1.00, 0.00, -0.00, -1.00, 479.3, 57.0)">o</text><text xml:space="preserve" font-family="Helvetica-Light" font-size="36.0" fill="#FEFFFF" transform="matrix(1.00, 0.00, -0.00, -1.00, 499.3, 57.0)">w</text><text xml:space="preserve" font-family="Helvetica-Light" font-size="36.0" fill="#FEFFFF" transform="matrix(1.00, 0.00, -0.00, -1.00, 525.3, 57.0)">s</text><text xml:space="preserve" font-family="Helvetica-Light" font-size="36.0" fill="#FEFFFF" transform="matrix(1.00, 0.00, -0.00, -1.00, 543.3, 57.0)"> </text><text xml:space="preserve" font-family="Helvetica-Light" font-size="36.0" fill="#FEFFFF" transform="matrix(1.00, 0.00, -0.00, -1.00, 553.3, 57.0)">y</text><text xml:space="preserve" font-family="Helvetica-Light" font-size="36.0" fill="#FEFFFF" transform="matrix(1.00, 0.00, -0.00, -1.00, 571.3, 57.0)">o</text><text xml:space="preserve" font-family="Helvetica-Light" font-size="36.0" fill="#FEFFFF" transform="matrix(1.00, 0.00, -0.00, -1.00, 591.3, 57.0)">u</text><text xml:space="preserve" font-family="Helvetica-Light" font-size="36.0" fill="#FEFFFF" transform="matrix(1.00, 0.00, -0.00, -1.00, 611.3, 57.0)"> </text><text xml:space="preserve" font-family="Helvetica-Light" font-size="36.0" fill="#FEFFFF" transform="matrix(1.00, 0.00, -0.00, -1.00, 621.4, 57.0)">t</text><text xml:space="preserve" font-family="Helvetica-Light" font-size="36.0" fill="#FEFFFF" transform="matrix(1.00, 0.00, -0.00, -1.00, 631.4, 57.0)">o</text><text xml:space="preserve" font-family="Helvetica-Light" font-size="36.0" fill="#FEFFFF" transform="matrix(1.00, 0.00, -0.00, -1.00, 651.4, 57.0)"> </text><text xml:space="preserve" font-family="Helvetica-Light" font-size="36.0" fill="#FEFFFF" transform="matrix(1.00, 0.00, -0.00, -1.00, 661.4, 57.0)">s</text><text xml:space="preserve" font-family="Helvetica-Light" font-size="36.0" fill="#FEFFFF" transform="matrix(1.00, 0.00, -0.00, -1.00, 679.4, 57.0)">t</text><text xml:space="preserve" font-family="Helvetica-Light" font-size="36.0" fill="#FEFFFF" transform="matrix(1.00, 0.00, -0.00, -1.00, 689.4, 57.0)">y</text><text xml:space="preserve" font-family="Helvetica-Light" font-size="36.0" fill="#FEFFFF" transform="matrix(1.00, 0.00, -0.00, -1.00, 707.4, 57.0)">l</text><text xml:space="preserve" font-family="Helvetica-Light" font-size="36.0" fill="#FEFFFF" transform="matrix(1.00, 0.00, -0.00, -1.00, 715.4, 57.0)">e</text><text xml:space="preserve" font-family="Helvetica-Light" font-size="36.0" fill="#FEFFFF" transform="matrix(1.00, 0.00, -0.00, -1.00, 735.4, 57.0)"> </text><text xml:space="preserve" font-family="Helvetica-Light" font-size="36.0" fill="#FEFFFF" transform="matrix(1.00, 0.00, -0.00, -1.00, 745.4, 57.0)">a</text><text xml:space="preserve" font-family="Helvetica-Light" font-size="36.0" fill="#FEFFFF" transform="matrix(1.00, 0.00, -0.00, -1.00, 765.4, 57.0)"> </text><text xml:space="preserve" font-family="Helvetica-Light" font-size="36.0" fill="#FEFFFF" transform="matrix(1.00, 0.00, -0.00, -1.00, 775.4, 57.0)">u</text><text xml:space="preserve" font-family="Helvetica-Light" font-size="36.0" fill="#FEFFFF" transform="matrix(1.00, 0.00, -0.00, -1.00, 795.5, 57.0)">n</text><text xml:space="preserve" font-family="Helvetica-Light" font-size="36.0" fill="#FEFFFF" transform="matrix(1.00, 0.00, -0.00, -1.00, 815.5, 57.0)">i</text><text xml:space="preserve" font-family="Helvetica-Light" font-size="36.0" fill="#FEFFFF" transform="matrix(1.00, 0.00, -0.00, -1.00, 823.5, 57.0)">q</text><text xml:space="preserve" font-family="Helvetica-Light" font-size="36.0" fill="#FEFFFF" transform="matrix(1.00, 0.00, -0.00, -1.00, 845.5, 57.0)">u</text><text xml:space="preserve" font-family="Helvetica-Light" font-size="36.0" fill="#FEFFFF" transform="matrix(1.00, 0.00, -0.00, -1.00, 865.5, 57.0)">e</text><text xml:space="preserve" font-family="Helvetica-Light" font-size="36.0" fill="#FEFFFF" transform="matrix(1.00, 0.00, -0.00, -1.00, 885.5, 57.0)"> </text><text xml:space="preserve" font-family="Helvetica-Light" font-size="36.0" fill="#FEFFFF" transform="matrix(1.00, 0.00, -0.00, -1.00, 5.0, 14.0)">i</text><text xml:space="preserve" font-family="Helvetica-Light" font-size="36.0" fill="#FEFFFF" transform="matrix(1.00, 0.00, -0.00, -1.00, 13.0, 14.0)">t</text><text xml:space="preserve" font-family="Helvetica-Light" font-size="36.0" fill="#FEFFFF" transform="matrix(1.00, 0.00, -0.00, -1.00, 23.0, 14.0)">e</text><text xml:space="preserve" font-family="Helvetica-Light" font-size="36.0" fill="#FEFFFF" transform="matrix(1.00, 0.00, -0.00, -1.00, 43.0, 14.0)">m</text><text xml:space="preserve" font-family="Helvetica-Light" font-size="36.0" fill="#FEFFFF" transform="matrix(1.00, 0.00, -0.00, -1.00, 73.0, 14.0)"> </text><text xml:space="preserve" font-family="Helvetica-Light" font-size="36.0" fill="#FEFFFF" transform="matrix(1.00, 0.00, -0.00, -1.00, 83.0, 14.0)">w</text><text xml:space="preserve" font-family="Helvetica-Light" font-size="36.0" fill="#FEFFFF" transform="matrix(1.00, 0.00, -0.00, -1.00, 109.0, 14.0)">i</text><text xml:space="preserve" font-family="Helvetica-Light" font-size="36.0" fill="#FEFFFF" transform="matrix(1.00, 0.00, -0.00, -1.00, 117.0, 14.0)">t</text><text xml:space="preserve" font-family="Helvetica-Light" font-size="36.0" fill="#FEFFFF" transform="matrix(1.00, 0.00, -0.00, -1.00, 127.0, 14.0)">h</text><text xml:space="preserve" font-family="Helvetica-Light" font-size="36.0" fill="#FEFFFF" transform="matrix(1.00, 0.00, -0.00, -1.00, 147.0, 14.0)">o</text><text xml:space="preserve" font-family="Helvetica-Light" font-size="36.0" fill="#FEFFFF" transform="matrix(1.00, 0.00, -0.00, -1.00, 167.0, 14.0)">u</text><text xml:space="preserve" font-family="Helvetica-Light" font-size="36.0" fill="#FEFFFF" transform="matrix(1.00, 0.00, -0.00, -1.00, 187.1, 14.0)">t</text><text xml:space="preserve" font-family="Helvetica-Light" font-size="36.0" fill="#FEFFFF" transform="matrix(1.00, 0.00, -0.00, -1.00, 197.1, 14.0)"> </text><text xml:space="preserve" font-family="Helvetica-Light" font-size="36.0" fill="#FEFFFF" transform="matrix(1.00, 0.00, -0.00, -1.00, 207.1, 14.0)">a</text><text xml:space="preserve" font-family="Helvetica-Light" font-size="36.0" fill="#FEFFFF" transform="matrix(1.00, 0.00, -0.00, -1.00, 227.1, 14.0)">f</text><text xml:space="preserve" font-family="Helvetica-Light" font-size="36.0" fill="#FEFFFF" transform="matrix(1.00, 0.00, -0.00, -1.00, 236.4, 14.0)">f</text><text xml:space="preserve" font-family="Helvetica-Light" font-size="36.0" fill="#FEFFFF" transform="matrix(1.00, 0.00, -0.00, -1.00, 246.5, 14.0)">e</text><text xml:space="preserve" font-family="Helvetica-Light" font-size="36.0" fill="#FEFFFF" transform="matrix(1.00, 0.00, -0.00, -1.00, 266.5, 14.0)">c</text><text xml:space="preserve" font-family="Helvetica-Light" font-size="36.0" fill="#FEFFFF" transform="matrix(1.00, 0.00, -0.00, -1.00, 286.5, 14.0)">t</text><text xml:space="preserve" font-family="Helvetica-Light" font-size="36.0" fill="#FEFFFF" transform="matrix(1.00, 0.00, -0.00, -1.00, 296.5, 14.0)">i</text><text xml:space="preserve" font-family="Helvetica-Light" font-size="36.0" fill="#FEFFFF" transform="matrix(1.00, 0.00, -0.00, -1.00, 304.5, 14.0)">n</text><text xml:space="preserve" font-family="Helvetica-Light" font-size="36.0" fill="#FEFFFF" transform="matrix(1.00, 0.00, -0.00, -1.00, 324.5, 14.0)">g</text><text xml:space="preserve" font-family="Helvetica-Light" font-size="36.0" fill="#FEFFFF" transform="matrix(1.00, 0.00, -0.00, -1.00, 346.5, 14.0)"> </text><text xml:space="preserve" font-family="Helvetica-Light" font-size="36.0" fill="#FEFFFF" transform="matrix(1.00, 0.00, -0.00, -1.00, 356.5, 14.0)">a</text><text xml:space="preserve" font-family="Helvetica-Light" font-size="36.0" fill="#FEFFFF" transform="matrix(1.00, 0.00, -0.00, -1.00, 376.5, 14.0)">n</text><text xml:space="preserve" font-family="Helvetica-Light" font-size="36.0" fill="#FEFFFF" transform="matrix(1.00, 0.00, -0.00, -1.00, 396.5, 14.0)">y</text><text xml:space="preserve" font-family="Helvetica-Light" font-size="36.0" fill="#FEFFFF" transform="matrix(1.00, 0.00, -0.00, -1.00, 414.5, 14.0)"> </text><text xml:space="preserve" font-family="Helvetica-Light" font-size="36.0" fill="#FEFFFF" transform="matrix(1.00, 0.00, -0.00, -1.00, 424.5, 14.0)">o</text><text xml:space="preserve" font-family="Helvetica-Light" font-size="36.0" fill="#FEFFFF" transform="matrix(1.00, 0.00, -0.00, -1.00, 444.6, 14.0)">t</text><text xml:space="preserve" font-family="Helvetica-Light" font-size="36.0" fill="#FEFFFF" transform="matrix(1.00, 0.00, -0.00, -1.00, 454.6, 14.0)">h</text><text xml:space="preserve" font-family="Helvetica-Light" font-size="36.0" fill="#FEFFFF" transform="matrix(1.00, 0.00, -0.00, -1.00, 474.6, 14.0)">e</text><text xml:space="preserve" font-family="Helvetica-Light" font-size="36.0" fill="#FEFFFF" transform="matrix(1.00, 0.00, -0.00, -1.00, 494.6, 14.0)">r</text><text xml:space="preserve" font-family="Helvetica-Light" font-size="36.0" fill="#FEFFFF" transform="matrix(1.00, 0.00, -0.00, -1.00, 506.6, 14.0)">s</text><text xml:space="preserve" font-family="Helvetica-Light" font-size="36.0" fill="#FEFFFF" transform="matrix(1.00, 0.00, -0.00, -1.00, 524.6, 14.0)">.</text></g></g><g><clipPath id="clip-1604"><path d="M 77.1 131.9 L 293.9 131.9 L 293.9 45.2 L 77.1 45.2 Z M 77.1 131.9 "></path></clipPath><g clip-path="url(#clip-1604)"><g><clipPath id="clip-1605"><path d="M 76.1 44.2 L 294.9 44.2 L 294.9 132.9 L 76.1 132.9 Z M 76.1 44.2 "></path></clipPath><g clip-path="url(#clip-1605)"><path d="M 77.1 45.2 L 293.9 45.2 L 293.9 131.9 L 77.1 131.9 Z M 77.1 45.2 " fill="url(#305B903D-C46F-4293-BB32-801374727FA7)"></path><path d="M 77.1 131.9 L 293.9 131.9 L 293.9 45.2 L 77.1 45.2 Z M 77.1 131.9 " fill="#04599E" fill-opacity="0.85"></path></g></g></g></g><g><clipPath id="clip-1606"><path d="M 82.8 27.5 L 288.2 27.5 L 288.2 149.5 L 82.8 149.5 Z M 82.8 27.5 "></path></clipPath><g clip-path="url(#clip-1606)"><text xml:space="preserve" font-family="Helvetica-Light" font-size="72.0" fill="#FEFFFF" transform="matrix(1.00, 0.00, -0.00, -1.00, 156.0, 62.0)">i</text><text xml:space="preserve" font-family="Helvetica-Light" font-size="72.0" fill="#FEFFFF" transform="matrix(1.00, 0.00, -0.00, -1.00, 172.0, 62.0)">d</text></g></g></g></svg>