<?xml version="1.0" encoding="UTF-8" standalone="no"?><svg xmlns="http://www.w3.org/2000/svg" xmlns:xlink="http://www.w3.org/1999/xlink" clip-rule="evenodd" stroke-miterlimit="4.00" viewBox="0 0 219 97"><desc>SVG generated by Keynote</desc><defs><pattern id="C51D403B-4820-484B-85D9-9D111ED6622F" patternUnits="userSpaceOnUse" width="178" height="178" viewBox="0 0 178 178" patternTransform="matrix(0.719101, 0.000000, 0.000000, -0.719101, 1.084961, 91.892580)"><image xlink:href="../../26F48F0A-F591-4C46-BED7-ED6C9CCAF82A/assets/01BD9B630741A14858075F16353204BA.jpeg" width="178.00" height="178.00"></image></pattern></defs><g transform="matrix(1.00, 0.00, -0.00, -1.00, 0.0, 97.0)"><g><clipPath id="clip-1594"><path d="M 1.1 91.9 L 217.9 91.9 L 217.9 5.2 L 1.1 5.2 Z M 1.1 91.9 "></path></clipPath><g clip-path="url(#clip-1594)"><g><clipPath id="clip-1595"><path d="M 0.1 4.2 L 218.9 4.2 L 218.9 92.9 L 0.1 92.9 Z M 0.1 4.2 "></path></clipPath><g clip-path="url(#clip-1595)"><path d="M 1.1 5.2 L 217.9 5.2 L 217.9 91.9 L 1.1 91.9 Z M 1.1 5.2 " fill="url(#C51D403B-4820-484B-85D9-9D111ED6622F)"></path><path d="M 1.1 91.9 L 217.9 91.9 L 217.9 5.2 L 1.1 5.2 Z M 1.1 91.9 " fill="#04599E" fill-opacity="0.85"></path></g></g></g></g><g><clipPath id="clip-1596"><path d="M 6.8 -12.5 L 212.2 -12.5 L 212.2 109.5 L 6.8 109.5 Z M 6.8 -12.5 "></path></clipPath><g clip-path="url(#clip-1596)"><text xml:space="preserve" font-family="Helvetica-Light" font-size="72.0" fill="#FEFFFF" transform="matrix(1.00, 0.00, -0.00, -1.00, 25.0, 22.0)">c</text><text xml:space="preserve" font-family="Helvetica-Light" font-size="72.0" fill="#FEFFFF" transform="matrix(1.00, 0.00, -0.00, -1.00, 65.0, 22.0)">l</text><text xml:space="preserve" font-family="Helvetica-Light" font-size="72.0" fill="#FEFFFF" transform="matrix(1.00, 0.00, -0.00, -1.00, 81.0, 22.0)">a</text><text xml:space="preserve" font-family="Helvetica-Light" font-size="72.0" fill="#FEFFFF" transform="matrix(1.00, 0.00, -0.00, -1.00, 121.0, 22.0)">s</text><text xml:space="preserve" font-family="Helvetica-Light" font-size="72.0" fill="#FEFFFF" transform="matrix(1.00, 0.00, -0.00, -1.00, 157.0, 22.0)">s</text></g></g></g></svg>